<svg width="87" height="87" viewBox="0 0 87 87" fill="none" xmlns="http://www.w3.org/2000/svg">
<path d="M37.0224 38.0414C36.1222 38.1539 35.447 38.7167 35.447 39.8422C35.447 40.9677 36.1222 41.5304 37.135 41.5304C38.1477 41.5304 38.8229 40.8551 38.8229 39.8422C38.9355 38.7167 38.2603 38.1539 37.0224 38.0414ZM61.6666 36.9159C61.7791 37.9288 62.3417 38.6041 63.4671 38.6041C64.4798 38.6041 65.155 37.9288 65.155 36.8034C65.155 35.7904 64.4798 35.1151 63.3545 35.1151C62.3417 35.1151 61.7791 35.7904 61.6666 36.9159ZM23.5188 35.1151C22.3935 35.2277 21.7183 35.7904 21.7183 36.8034C21.7183 37.8163 22.3935 38.6041 23.4063 38.6041C24.4191 38.6041 25.0942 38.0414 25.2068 36.9159C25.2068 35.7904 24.5316 35.2277 23.5188 35.1151ZM36.6849 61.7891C35.6721 61.9017 35.1094 62.4644 35.1094 63.5899C35.1094 64.7154 35.8971 65.2781 36.9099 65.2781C37.9227 65.2781 38.5979 64.4903 38.5979 63.4774C38.4853 62.3519 37.8102 61.7891 36.6849 61.7891ZM57.3904 36.4657C57.2779 35.3402 56.7152 34.6649 55.7025 34.6649C54.6897 34.6649 53.902 35.2277 53.902 36.3532C53.902 37.4787 54.4646 38.0414 55.5899 38.1539C56.7152 38.1539 57.1654 37.4787 57.3904 36.4657ZM33.0839 36.4657C32.9714 35.3402 32.4087 34.6649 31.3959 34.6649C30.3832 34.6649 29.5954 35.2277 29.5954 36.3532C29.5954 37.3661 30.1581 38.0414 31.2834 38.1539C32.4087 38.1539 32.9714 37.4787 33.0839 36.4657ZM86.4232 35.7904C86.3107 34.7775 85.748 34.2147 84.6227 34.2147C83.4974 34.2147 82.9348 35.0026 82.9348 36.0155C82.9348 37.0285 83.7225 37.7038 84.7353 37.7038C85.748 37.7038 86.3107 37.0285 86.4232 35.7904ZM50.076 61.7891C48.9506 61.9017 48.388 62.577 48.388 63.5899C48.388 64.6028 49.0632 65.2781 50.1885 65.2781C51.2013 65.2781 51.8764 64.6028 51.8764 63.4774C51.7639 62.3519 51.2013 61.7891 50.076 61.7891ZM0.562651 35.903C0.675181 37.0285 1.23783 37.7038 2.36313 37.7038C3.37591 37.7038 4.05109 37.0285 4.05109 36.0155C4.05109 35.0026 3.37591 34.3273 2.36313 34.3273C1.23783 34.2147 0.675181 34.89 0.562651 35.903ZM50.4135 33.0893C51.5388 33.0893 52.214 32.414 52.3266 31.401C52.3266 30.3881 51.7639 29.6003 50.6386 29.6003C49.6258 29.6003 48.9507 30.163 48.8381 31.2885C48.8381 32.414 49.4008 32.9767 50.4135 33.0893ZM38.1478 31.401C38.0352 30.2755 37.4726 29.6003 36.4598 29.6003C35.3345 29.6003 34.6593 30.2755 34.6593 31.2885C34.6593 32.3014 35.222 32.9767 36.3473 33.0893C37.4726 33.0893 38.0352 32.414 38.1478 31.401ZM75.6203 31.7387C76.5206 31.6261 77.1957 31.1759 77.3083 30.0505C77.3083 28.925 76.6331 28.2497 75.6203 28.2497C74.6075 28.2497 73.8198 28.925 73.8198 29.9379C73.8198 30.9508 74.3825 31.5136 75.6203 31.7387ZM11.4781 31.6261C12.4909 31.5136 13.166 30.8383 13.166 29.8254C13.166 28.8124 12.4909 28.1371 11.3656 28.1371C10.3528 28.1371 9.6776 28.8124 9.6776 29.9379C9.6776 31.0634 10.3528 31.6261 11.4781 31.6261ZM74.0449 23.9728C73.9324 22.9599 73.3697 22.2846 72.2444 22.2846C71.1191 22.2846 70.5565 22.9599 70.5565 24.0854C70.5565 25.2109 71.2316 25.7736 72.3569 25.7736C73.4822 25.7736 74.0449 25.0983 74.0449 23.9728ZM14.5164 22.2846C13.5036 22.3972 12.8284 22.9599 12.8284 24.0854C12.8284 25.2109 13.5036 25.7736 14.6289 25.7736C15.7542 25.7736 16.3169 25.0983 16.3169 23.9728C16.3169 22.9599 15.6417 22.2846 14.5164 22.2846ZM49.7384 38.0414C48.7256 38.1539 48.0504 38.8292 48.0504 39.8422C48.0504 40.9677 48.8381 41.5304 49.8509 41.5304C50.8637 41.5304 51.5388 40.8551 51.5388 39.7296C51.4263 38.6041 50.7511 38.1539 49.7384 38.0414ZM74.0449 62.9146C73.9324 61.9017 73.3697 61.2264 72.2444 61.2264C71.1191 61.2264 70.5565 62.0142 70.5565 63.0272C70.5565 64.0401 71.2316 64.7154 72.3569 64.7154C73.4822 64.6028 74.0449 63.9276 74.0449 62.9146ZM14.5164 61.2264C13.6162 61.4515 12.8284 61.9017 12.8284 63.0272C12.8284 64.1526 13.3911 64.7154 14.5164 64.8279C15.6417 64.8279 16.2044 64.1526 16.3169 63.1397C16.4294 61.9017 15.7542 61.3389 14.5164 61.2264ZM75.3953 55.2613C74.3825 55.3739 73.7073 56.0492 73.8198 57.0621C73.8198 58.075 74.495 58.7503 75.6203 58.7503C76.6331 58.7503 77.3083 58.075 77.3083 56.9495C77.1957 55.9366 76.5206 55.3739 75.3953 55.2613ZM37.135 48.9586C38.2603 48.8461 38.8229 48.2833 38.8229 47.1578C38.8229 46.0323 38.1478 45.4696 37.0224 45.4696C36.0097 45.4696 35.3345 46.1449 35.3345 47.2704C35.447 48.2833 36.1222 48.8461 37.135 48.9586ZM49.7384 48.9586C50.7511 48.8461 51.4263 48.3959 51.5388 47.2704C51.5388 46.1449 50.8637 45.4696 49.8509 45.4696C48.8381 45.4696 48.0504 46.0323 48.0504 47.1578C48.0504 48.1708 48.7256 48.8461 49.7384 48.9586ZM25.2068 50.1966C25.2068 49.0711 24.5316 48.3959 23.5188 48.3959C22.506 48.3959 21.7183 48.9586 21.7183 50.0841C21.7183 51.097 22.281 51.7723 23.4063 51.8849C24.5316 51.8849 25.0942 51.3221 25.2068 50.1966ZM63.4671 51.8849C64.5924 51.7723 65.155 51.2096 65.155 50.0841C65.155 49.0711 64.4798 48.3959 63.3545 48.3959C62.3417 48.3959 61.6666 49.0711 61.6666 50.1966C61.7791 51.2096 62.4543 51.7723 63.4671 51.8849ZM11.1405 55.2613C10.2403 55.4864 9.56507 55.9366 9.6776 57.0621C9.6776 58.1876 10.4653 58.7503 11.4781 58.7503C12.4909 58.7503 13.166 57.9625 13.166 56.9495C13.0535 55.9366 12.4909 55.3739 11.1405 55.2613ZM31.2834 48.8461C30.2706 48.9586 29.5954 49.5213 29.5954 50.5343C29.5954 51.6598 30.2706 52.3351 31.2834 52.3351C32.2962 52.3351 32.9714 51.7723 33.0839 50.6468C33.0839 49.5213 32.4087 48.9586 31.2834 48.8461ZM53.902 50.5343C54.0145 51.6598 54.5772 52.3351 55.7025 52.3351C56.7152 52.3351 57.5029 51.6598 57.3904 50.6468C57.3904 49.6339 56.7152 48.9586 55.7025 48.9586C54.4646 48.8461 54.0145 49.5213 53.902 50.5343ZM2.13807 52.7853C3.37591 52.7853 3.93856 52.2225 4.05109 51.097C4.05109 50.0841 3.48844 49.2962 2.36313 49.2962C1.35036 49.2962 0.562651 49.859 0.562651 50.9845C0.562651 51.9974 1.23783 52.5602 2.13807 52.7853ZM86.4232 50.9845C86.3107 49.9715 85.748 49.2962 84.7353 49.2962C83.7225 49.2962 83.0473 49.9715 82.9348 50.9845C82.9348 51.9974 83.4974 52.6727 84.6227 52.6727C85.748 52.6727 86.3107 52.11 86.4232 50.9845ZM36.5723 53.9107C35.447 53.9107 34.7718 54.586 34.6593 55.599C34.6593 56.6119 35.222 57.3997 36.3473 57.3997C37.36 57.3997 38.0352 56.837 38.1478 55.7115C38.1478 54.586 37.4726 54.0233 36.5723 53.9107ZM50.6386 57.3997C51.6514 57.1746 52.3266 56.6119 52.3266 55.599C52.3266 54.586 51.6514 53.9107 50.5261 53.9107C49.4008 53.9107 48.8381 54.586 48.8381 55.7115C48.8381 56.837 49.6258 57.2872 50.6386 57.3997ZM51.2013 86.4373C52.1015 86.3247 52.7767 85.762 52.7767 84.6365C52.7767 83.511 52.1015 82.9482 50.9762 82.9482C49.9634 82.9482 49.2882 83.6235 49.2882 84.749C49.2882 85.762 49.9634 86.3247 51.2013 86.4373ZM34.2092 2.25097C34.3217 3.37646 34.8844 4.05175 35.8971 4.05175C36.9099 4.05175 37.6976 3.37646 37.6976 2.36352C37.6976 1.35058 37.135 0.675291 36.0097 0.675291C34.8844 0.562743 34.3217 1.23803 34.2092 2.25097ZM51.0887 0.562743C49.9634 0.675291 49.2882 1.23803 49.2882 2.25097C49.2882 3.26391 49.9634 3.9392 50.9762 3.9392C51.989 3.9392 52.6641 3.37646 52.6641 2.25097C52.6641 1.23803 52.1015 0.675291 51.0887 0.562743ZM35.8971 86.4373C37.0224 86.4373 37.6976 85.762 37.6976 84.749C37.6976 83.7361 37.0224 82.9482 36.0097 82.9482C34.9969 82.9482 34.3217 83.511 34.2092 84.6365C34.2092 85.762 34.8844 86.3247 35.8971 86.4373ZM31.621 11.3674C31.5085 10.3545 30.9458 9.67917 29.933 9.67917C28.8077 9.67917 28.2451 10.3545 28.1326 11.3674C28.1326 12.3803 28.8077 13.0556 29.8205 13.1682C30.9458 13.1682 31.621 12.4929 31.621 11.3674ZM55.2523 11.2549C55.2523 12.3803 55.9275 13.0556 56.9403 13.0556C57.9531 13.0556 58.7408 12.3803 58.7408 11.3674C58.7408 10.3545 58.1781 9.67917 57.0528 9.56662C55.9275 9.67917 55.3649 10.3545 55.2523 11.2549ZM25.7694 14.5188C25.6569 13.6184 25.0942 12.8305 23.9689 12.8305C22.8436 12.8305 22.281 13.3933 22.1685 14.5188C22.1685 15.6442 22.8436 16.207 23.8564 16.3195C25.0942 16.4321 25.6569 15.7568 25.7694 14.5188ZM61.2164 14.5188C61.329 15.6442 61.8916 16.3195 62.9044 16.3195C63.9172 16.3195 64.7049 15.7568 64.7049 14.6313C64.7049 13.5058 64.1422 12.9431 63.0169 12.8305C61.8916 12.8305 61.329 13.5058 61.2164 14.5188ZM56.9403 77.3208C58.0656 77.2083 58.7408 76.6455 58.7408 75.5201C58.7408 74.5071 58.0656 73.8318 56.9403 73.8318C55.9275 73.8318 55.2523 74.5071 55.2523 75.5201C55.3649 76.6455 55.9275 77.2083 56.9403 77.3208ZM31.621 75.6326C31.621 74.5071 30.9458 73.8318 29.933 73.8318C28.9203 73.8318 28.1326 74.3946 28.1326 75.5201C28.1326 76.533 28.6952 77.3208 29.8205 77.3208C30.9458 77.3208 31.5085 76.6455 31.621 75.6326ZM64.7049 72.3687C64.5924 71.2432 64.0297 70.5679 62.9044 70.6805C61.8916 70.6805 61.2164 71.3558 61.2164 72.4812C61.2164 73.4942 61.8916 74.1695 63.0169 74.1695C64.0297 74.0569 64.5924 73.3816 64.7049 72.3687ZM25.7694 72.2561C25.5444 71.2432 24.9817 70.5679 23.9689 70.5679C22.9562 70.5679 22.281 71.2432 22.281 72.3687C22.281 73.4942 22.9562 74.0569 24.0815 74.0569C25.2068 74.0569 25.6569 73.3816 25.7694 72.2561ZM51.8764 23.4101C51.7639 22.2846 51.0887 21.7219 50.076 21.7219C49.0632 21.7219 48.388 22.5097 48.388 23.5226C48.388 24.5356 49.0632 25.2109 50.1885 25.2109C51.3138 25.2109 51.7639 24.5356 51.8764 23.4101ZM36.9099 25.2109C37.9227 25.0983 38.5979 24.5356 38.5979 23.4101C38.5979 22.3972 37.9227 21.7219 36.9099 21.7219C35.8971 21.7219 35.222 22.3972 35.222 23.4101C35.1094 24.6481 35.7846 25.0983 36.9099 25.2109ZM25.4318 23.6352C25.3193 22.6222 24.8692 21.947 23.6313 21.947C22.6186 21.947 21.9434 22.5097 21.9434 23.5226C21.8309 24.6481 22.506 25.3234 23.5188 25.3234C24.6441 25.436 25.2068 24.7607 25.4318 23.6352ZM63.242 21.947C62.1167 22.0595 61.554 22.7348 61.554 23.7477C61.6666 24.8732 62.3417 25.436 63.3545 25.436C64.3673 25.3234 64.9299 24.7607 64.9299 23.7477C65.0425 22.5097 64.3673 21.947 63.242 21.947ZM72.3569 50.9845C72.2444 49.9715 71.6818 49.2962 70.669 49.1837C69.5437 49.1837 68.8685 49.7464 68.8685 50.8719C68.8685 51.8849 69.4312 52.6727 70.5565 52.6727C71.5692 52.6727 72.1319 52.11 72.3569 50.9845ZM16.3169 52.6727C17.4422 52.6727 18.1174 52.11 18.2299 50.9845C18.3424 49.9715 17.6672 49.1837 16.6545 49.1837C15.5292 49.0712 14.854 49.7464 14.854 50.7594C14.6289 51.9974 15.3041 52.5602 16.3169 52.6727ZM22.281 5.62743C21.2682 5.85252 20.593 6.41527 20.593 7.4282C20.593 8.44114 21.2682 9.11643 22.3935 9.11643C23.5188 9.11643 24.0815 8.44114 24.0815 7.31565C24.0815 6.19017 23.2938 5.73997 22.281 5.62743ZM62.9044 7.2031C62.9044 8.32859 63.467 9.00388 64.4798 9.11643C65.6051 9.22898 66.2803 8.55369 66.2803 7.54075C66.3928 6.41526 65.8302 5.73997 64.7049 5.62743C63.6921 5.51488 63.0169 6.19017 62.9044 7.2031ZM64.5924 81.3726C65.7177 81.26 66.3928 80.5847 66.2803 79.5718C66.2803 78.5589 65.6051 77.8836 64.4798 77.8836C63.3545 77.8836 62.7919 78.5589 62.7919 79.6843C62.9044 80.8098 63.5796 81.26 64.5924 81.3726ZM24.0815 79.6843C24.0815 78.5589 23.5188 77.8836 22.3935 77.8836C21.2682 77.8836 20.593 78.5589 20.593 79.5718C20.593 80.5847 21.1557 81.3726 22.281 81.3726C23.4063 81.3726 23.9689 80.8098 24.0815 79.6843ZM23.5188 65.053C24.6441 65.053 25.3193 64.3777 25.3193 63.3648C25.3193 62.2393 24.6441 61.564 23.5188 61.6766C22.506 61.6766 21.8309 62.2393 21.8309 63.3648C21.8309 64.3777 22.506 64.9405 23.5188 65.053ZM65.0425 63.3648C64.9299 62.2393 64.2548 61.564 63.242 61.6766C62.1167 61.6766 61.554 62.4644 61.554 63.4774C61.554 64.4903 62.2292 65.053 63.242 65.053C64.4798 65.053 65.0425 64.3777 65.0425 63.3648ZM37.8102 70.5679C37.6976 69.4424 37.0224 68.8797 36.0097 68.8797C34.9969 68.8797 34.3217 69.555 34.3217 70.6805C34.3217 71.8059 34.9969 72.3687 36.1222 72.3687C37.135 72.2561 37.6976 71.5808 37.8102 70.5679ZM5.62651 64.6028C5.73904 65.7283 6.41422 66.4036 7.42699 66.2911C8.43977 66.2911 9.11495 65.6158 9.11495 64.4903C9.11495 63.3648 8.43977 62.8021 7.31447 62.8021C6.18916 62.9146 5.73904 63.5899 5.62651 64.6028ZM9.11495 22.5097C9.00242 21.3842 8.43977 20.7089 7.42699 20.7089C6.41422 20.7089 5.62651 21.2717 5.62651 22.3972C5.62651 23.4101 6.18916 24.0854 7.31447 24.1979C8.32724 24.0854 8.88989 23.5226 9.11495 22.5097ZM51.0887 72.3687C52.1015 72.2561 52.7767 71.6934 52.7767 70.5679C52.7767 69.4424 52.1015 68.8797 51.0887 68.8797C49.9634 68.8797 49.4008 69.555 49.4008 70.5679C49.1757 71.6934 49.8509 72.2561 51.0887 72.3687ZM16.3169 37.8163C17.4422 37.7037 18.1174 37.141 18.1174 36.1281C18.1174 35.1151 17.5547 34.3273 16.4294 34.3273C15.3041 34.3273 14.7415 34.89 14.6289 36.0155C14.6289 37.0285 15.3041 37.5912 16.3169 37.8163ZM81.3594 22.5097C81.2468 21.3842 80.6842 20.7089 79.6714 20.7089C78.6586 20.7089 77.8709 21.2717 77.8709 22.3972C77.8709 23.5226 78.4336 24.0854 79.5589 24.1979C80.6842 24.0854 81.2468 23.4101 81.3594 22.5097ZM72.3569 36.1281C72.2444 35.0026 71.7943 34.3273 70.669 34.3273C69.5437 34.3273 68.8685 34.89 68.8685 36.0155C68.8685 37.141 69.4312 37.8163 70.5565 37.8163C71.5692 37.8163 72.1319 37.141 72.3569 36.1281ZM37.8102 16.3195C37.5851 15.4191 37.135 14.6313 36.0097 14.6313C34.8844 14.6313 34.3217 15.194 34.2092 16.3195C34.2092 17.445 34.8844 18.0078 35.8971 18.1203C37.0224 18.1203 37.5851 17.445 37.8102 16.3195ZM52.6641 16.4321C52.5516 15.4191 51.989 14.7439 50.8637 14.6313C49.7384 14.6313 49.1757 15.3066 49.0632 16.3195C49.0632 17.445 49.7384 18.0078 50.7511 18.1203C51.989 18.1203 52.5516 17.445 52.6641 16.4321ZM77.8709 64.6028C77.9834 65.7283 78.6586 66.2911 79.6714 66.2911C80.6842 66.2911 81.3594 65.6158 81.3594 64.4903C81.3594 63.4774 80.6842 62.8021 79.5589 62.8021C78.4336 62.9146 77.9834 63.5899 77.8709 64.6028ZM28.8077 5.96507C29.933 5.96507 30.6082 5.28978 30.6082 4.27684C30.6082 3.15136 29.933 2.47607 28.8077 2.58862C27.795 2.58862 27.1198 3.15136 27.1198 4.27684C27.1198 5.28978 27.795 5.85252 28.8077 5.96507ZM59.7536 4.16429C59.641 3.03881 58.9658 2.47607 57.9531 2.47607C56.9403 2.47607 56.2651 3.15136 56.3776 4.16429C56.3776 5.28978 57.0528 5.96507 58.1781 5.85252C59.1909 5.96507 59.7536 5.28978 59.7536 4.16429ZM80.9092 28.925C81.0218 30.0505 81.6969 30.6132 82.7097 30.6132C83.7225 30.6132 84.3977 29.9379 84.3977 28.925C84.3977 27.7995 83.835 27.1242 82.7097 27.1242C81.5844 27.1242 81.0218 27.7995 80.9092 28.925ZM2.47567 28.925C2.5882 29.9379 3.15085 30.6132 4.27615 30.7257C5.28892 30.7257 5.9641 30.163 5.9641 29.1501C5.9641 28.0246 5.40145 27.3493 4.38868 27.3493C3.26338 27.1242 2.70073 27.7995 2.47567 28.925ZM58.0656 81.0349C56.9403 81.1475 56.2651 81.8228 56.3776 82.8357C56.3776 83.8486 57.0528 84.5239 58.0656 84.4114C59.1909 84.4114 59.7536 83.7361 59.7536 82.6106C59.7536 81.5977 59.0784 81.0349 58.0656 81.0349ZM28.8077 84.4114C29.933 84.2988 30.6082 83.7361 30.6082 82.6106C30.6082 81.4851 29.933 80.9224 28.8077 80.9224C27.795 80.9224 27.1198 81.4851 27.1198 82.6106C27.1198 83.7361 27.795 84.2988 28.8077 84.4114ZM5.9641 58.1876C5.9641 57.0621 5.28892 56.3868 4.27615 56.3868C3.15085 56.3868 2.47567 57.0621 2.47567 58.075C2.47567 59.088 3.03832 59.7633 4.05109 59.7633C5.28892 59.8758 5.85157 59.2005 5.9641 58.1876ZM84.3977 58.075C84.2851 56.9495 83.7225 56.2743 82.5972 56.3868C81.4719 56.3868 80.9092 57.0621 80.9092 58.1876C80.9092 59.2005 81.5844 59.7633 82.5972 59.8758C83.835 59.8758 84.2851 59.2005 84.3977 58.075ZM66.3928 68.0919C66.3928 69.2173 67.068 69.8926 68.0808 69.8926C69.2061 69.8926 69.8813 69.2173 69.7687 68.0919C69.7687 67.0789 69.2061 66.4036 68.0808 66.4036C67.068 66.4036 66.5054 66.9664 66.3928 68.0919ZM31.0583 67.7542C30.9458 66.6287 30.3832 65.9534 29.2579 65.9534C28.2451 65.9534 27.5699 66.5162 27.5699 67.6417C27.5699 68.7671 28.1326 69.4424 29.2579 69.4424C30.3832 69.4424 30.9458 68.7671 31.0583 67.7542ZM43.5492 59.3131C44.6745 59.2005 45.2372 58.5252 45.2372 57.5123C45.2372 56.4993 44.562 55.9366 43.5492 55.9366C42.4239 55.9366 41.7487 56.6119 41.8612 57.7374C41.7487 58.6378 42.4239 59.2005 43.5492 59.3131ZM19.2427 55.9366C18.2299 56.0492 17.5547 56.6119 17.5547 57.7374C17.5547 58.7503 18.1174 59.4256 19.1301 59.4256C20.2554 59.5382 20.9306 58.8629 20.9306 57.7374C21.0432 56.6119 20.368 56.0492 19.2427 55.9366ZM65.9427 57.6248C66.0552 58.6378 66.6179 59.3131 67.7432 59.3131C68.756 59.3131 69.4312 58.7503 69.4312 57.6248C69.4312 56.4994 68.8685 55.8241 67.7432 55.8241C66.6179 55.9366 66.0552 56.6119 65.9427 57.6248ZM60.4287 57.7374C61.554 57.6248 62.2292 57.0621 62.2292 56.0492C62.2292 54.9237 61.554 54.2484 60.5413 54.2484C59.5285 54.2484 58.8533 54.8111 58.8533 55.8241C58.7408 56.9495 59.3034 57.5123 60.4287 57.7374ZM41.7487 71.5808C41.8612 72.7063 42.4239 73.2691 43.5492 73.2691C44.562 73.2691 45.2372 72.7063 45.2372 71.5808C45.2372 70.4554 44.6745 69.7801 43.5492 69.7801C42.4239 69.7801 41.8612 70.4554 41.7487 71.5808ZM28.2451 56.0492C28.1326 54.9237 27.5699 54.2484 26.5571 54.2484C25.4318 54.2484 24.8692 54.9237 24.8692 56.0492C24.8692 57.0621 25.4318 57.7374 26.5571 57.7374C27.4574 57.7374 28.02 57.0621 28.2451 56.0492ZM31.0583 58.7503C30.0456 58.8629 29.3704 59.4256 29.3704 60.5511C29.3704 61.564 30.0456 62.2393 31.0583 62.2393C32.0711 62.2393 32.8588 61.6766 32.8588 60.5511C32.7463 59.4256 32.0711 58.8629 31.0583 58.7503ZM45.2372 78.3338C45.1246 77.2083 44.562 76.6455 43.4367 76.6455C42.4239 76.6455 41.7487 77.2083 41.7487 78.3338C41.7487 79.4592 42.3114 80.1345 43.4367 80.1345C44.562 80.022 45.1246 79.4592 45.2372 78.3338ZM57.6155 65.9534C56.6027 66.066 55.815 66.6287 55.9275 67.7542C55.9275 68.7671 56.6027 69.4424 57.6155 69.4424C58.7408 69.4424 59.416 68.8797 59.416 67.7542C59.416 66.6287 58.7408 66.066 57.6155 65.9534ZM43.4367 66.2911C44.4494 66.1785 45.1246 65.6158 45.2372 64.6028C45.2372 63.5899 44.6745 62.9146 43.6617 62.9146C42.5364 62.8021 41.8612 63.4774 41.8612 64.4903C41.7487 65.6158 42.3114 66.1785 43.4367 66.2911ZM20.593 68.2044C20.593 67.0789 20.0304 66.5162 18.9051 66.4036C17.7798 66.4036 17.1046 67.0789 17.1046 68.0919C17.1046 69.1048 17.7798 69.7801 18.7925 69.7801C19.8053 69.8926 20.4805 69.3299 20.593 68.2044ZM57.728 60.4385C57.5029 59.4256 56.9403 58.7503 55.815 58.8629C54.8022 58.8629 54.2396 59.5382 54.2396 60.5511C54.2396 61.6766 54.9147 62.2393 56.0401 62.2393C57.0528 62.2393 57.6155 61.564 57.728 60.4385ZM43.4367 6.97801C42.3114 7.09056 41.7487 7.6533 41.7487 8.77878C41.7487 9.79172 42.4239 10.467 43.4367 10.467C44.562 10.467 45.2372 9.79172 45.2372 8.77878C45.2372 7.54075 44.562 6.97801 43.4367 6.97801ZM43.3241 17.1074C44.3369 17.1074 45.1246 16.6572 45.2372 15.5317C45.3497 14.5188 44.8996 13.8435 43.7743 13.6184C42.649 13.5058 41.9738 13.956 41.7487 15.0815C41.6362 16.207 42.1988 16.8823 43.3241 17.1074ZM13.2786 16.4321C13.166 15.3066 12.4909 14.7439 11.4781 14.7439C10.3528 14.8564 9.79013 15.5317 9.79013 16.5446C9.90266 17.5576 10.4653 18.1203 11.5906 18.1203C12.6034 18.2329 13.166 17.5576 13.2786 16.4321ZM20.593 18.7956C20.4805 17.6701 19.8053 16.9948 18.7925 17.1074C17.7798 17.1074 17.1046 17.7827 17.1046 18.7956C17.1046 19.8085 17.6672 20.5964 18.7925 20.4838C20.0304 20.5964 20.4805 19.9211 20.593 18.7956ZM68.0808 20.5964C69.2061 20.4838 69.8813 19.9211 69.7687 18.7956C69.7687 17.6701 68.981 17.1074 67.9683 17.1074C66.9555 17.1074 66.3928 17.7827 66.3928 18.7956C66.3928 19.9211 67.068 20.4838 68.0808 20.5964ZM29.1453 17.445C28.1326 17.5576 27.4574 18.1203 27.5699 19.2458C27.5699 20.2587 28.2451 20.934 29.2579 20.934C30.2706 20.934 31.0583 20.3713 31.0583 19.2458C31.0583 18.1203 30.3832 17.5576 29.1453 17.445ZM57.728 21.0466C58.7408 20.934 59.5285 20.3713 59.416 19.2458C59.416 18.1203 58.7408 17.5576 57.6155 17.5576C56.6027 17.5576 56.0401 18.2329 55.9275 19.2458C55.9275 20.3713 56.6027 20.8215 57.728 21.0466ZM45.2372 22.6222C45.2372 21.6093 44.787 20.8215 43.6617 20.7089C42.649 20.5964 41.9738 21.0466 41.7487 22.1721C41.6362 23.2975 42.0863 23.9728 43.2116 24.1979C44.3369 24.3105 45.0121 23.7477 45.2372 22.6222ZM31.0583 28.2497C32.0711 28.1371 32.7463 27.5744 32.7463 26.5614C32.7463 25.436 32.0711 24.8732 30.9458 24.8732C29.933 24.8732 29.2579 25.5485 29.2579 26.5614C29.2579 27.5744 29.933 28.1371 31.0583 28.2497ZM57.728 26.4489C57.6155 25.3234 57.0528 24.6481 55.9275 24.6481C54.9148 24.6481 54.2396 25.3234 54.2396 26.4489C54.2396 27.4618 54.9148 28.0246 55.9275 28.1371C56.9403 28.2497 57.5029 27.5744 57.728 26.4489ZM20.9306 29.2626C20.8181 28.2497 20.2554 27.4618 19.1301 27.5744C18.0048 27.5744 17.4422 28.3622 17.4422 29.3752C17.4422 30.3881 18.1174 30.9508 19.1301 30.9508C20.368 31.0634 20.8181 30.2755 20.9306 29.2626ZM43.4367 27.6869C42.3114 27.7995 41.7487 28.3622 41.7487 29.4877C41.7487 30.5006 42.3114 31.1759 43.4367 31.1759C44.562 31.1759 45.2372 30.6132 45.2372 29.4877C45.2372 28.3622 44.562 27.7995 43.4367 27.6869ZM69.4312 29.3752C69.3186 28.2497 68.756 27.5744 67.7432 27.5744C66.6179 27.5744 66.0552 28.2497 66.0552 29.3752C66.0552 30.3881 66.6179 31.0634 67.7432 31.0634C68.756 31.0634 69.3186 30.3881 69.4312 29.3752ZM28.2451 31.1759C28.2451 30.0505 27.6824 29.3752 26.5571 29.3752C25.4318 29.3752 24.7567 29.9379 24.7567 31.0634C24.7567 32.0763 25.3193 32.7516 26.3321 32.8642C27.4574 32.8642 28.02 32.3014 28.2451 31.1759ZM60.4287 32.8642C61.554 32.7516 62.2292 32.1889 62.2292 31.0634C62.2292 30.0505 61.554 29.2626 60.4287 29.3752C59.416 29.3752 58.7408 30.0505 58.7408 31.0634C58.7408 32.0763 59.416 32.6391 60.4287 32.8642ZM43.5492 37.9288C44.6745 37.8163 45.2372 37.2536 45.2372 36.1281C45.2372 35.1151 44.562 34.5524 43.5492 34.4398C42.4239 34.4398 41.7487 35.1151 41.7487 36.1281C41.7487 37.2536 42.4239 37.8163 43.5492 37.9288ZM8.43977 45.2445C9.45254 45.2445 10.2403 44.7943 10.3528 43.6688C10.4653 42.6559 10.0152 41.9806 8.88989 41.7555C7.76459 41.6429 7.0894 42.0931 6.86434 43.2186C6.86434 44.3441 7.31447 45.0194 8.43977 45.2445ZM15.4166 45.2445C16.5419 45.132 17.1046 44.5692 17.1046 43.4437C17.1046 42.4308 16.5419 41.7555 15.4166 41.7555C14.2913 41.7555 13.6162 42.3182 13.6162 43.4437C13.6162 44.5692 14.2913 45.132 15.4166 45.2445ZM24.194 43.5563C24.0815 42.4308 23.5188 41.868 22.506 41.7555C21.4933 41.7555 20.8181 42.3182 20.8181 43.3312C20.8181 44.4567 21.3807 45.132 22.506 45.132C23.4063 45.2445 24.0815 44.5692 24.194 43.5563ZM31.1709 43.4437C31.0583 42.3182 30.4957 41.7555 29.3704 41.7555C28.3576 41.7555 27.795 42.4308 27.6824 43.4437C27.6824 44.5692 28.3576 45.2445 29.3704 45.2445C30.4957 45.2445 31.0583 44.5692 31.1709 43.4437ZM45.2372 43.5563C45.2372 42.4308 44.6745 41.7555 43.5492 41.7555C42.5364 41.7555 41.8612 42.3182 41.7487 43.3312C41.6362 44.4567 42.1988 45.132 43.3241 45.2445C44.4494 45.2445 45.1246 44.6818 45.2372 43.5563ZM45.2372 50.8719C45.2372 49.7464 44.6745 49.0711 43.5492 49.0711C42.5364 49.0711 41.8612 49.6339 41.7487 50.6468C41.6362 51.7723 42.1988 52.4476 43.3241 52.5602C44.4494 52.5602 45.1246 51.9974 45.2372 50.8719ZM59.3034 43.5563C59.3034 42.4308 58.7408 41.7555 57.6155 41.7555C56.6027 41.7555 55.9275 42.3182 55.9275 43.3312C55.815 44.4567 56.3776 45.132 57.5029 45.132C58.5157 45.2445 59.0784 44.6818 59.3034 43.5563ZM64.4798 41.7555C63.3545 41.868 62.7919 42.4308 62.7919 43.5563C62.7919 44.5692 63.467 45.2445 64.4798 45.2445C65.6051 45.2445 66.2803 44.6818 66.2803 43.5563C66.2803 42.4308 65.6051 41.868 64.4798 41.7555ZM73.2572 43.4437C73.1446 42.3182 72.582 41.7555 71.4567 41.7555C70.4439 41.7555 69.7687 42.4308 69.7687 43.4437C69.7687 44.5692 70.4439 45.2445 71.4567 45.2445C72.6945 45.2445 73.2572 44.5692 73.2572 43.4437ZM78.321 41.7555C77.1957 41.868 76.5206 42.4308 76.5206 43.5563C76.5206 44.5692 77.0832 45.2445 78.096 45.2445C79.2213 45.2445 79.8965 44.6818 79.8965 43.5563C80.009 42.4308 79.4463 41.868 78.321 41.7555ZM70.3314 13.2807C71.4567 13.1682 72.1319 12.6054 72.1319 11.5925C72.1319 10.467 71.4567 9.79172 70.3314 9.79172C69.3186 9.79172 68.6434 10.3545 68.6434 11.4799C68.6434 12.4929 69.3186 13.0556 70.3314 13.2807ZM18.2299 11.4799C18.1174 10.3545 17.5547 9.67917 16.5419 9.67917C15.5292 9.67917 14.854 10.3545 14.854 11.3674C14.854 12.3803 15.5292 13.0556 16.5419 13.0556C17.6672 13.1682 18.1174 12.6054 18.2299 11.4799ZM68.756 75.5201C68.8685 76.6455 69.4312 77.3208 70.5565 77.2083C71.5692 77.2083 72.2444 76.533 72.2444 75.5201C72.2444 74.5071 71.6818 73.7193 70.5565 73.7193C69.3186 73.7193 68.756 74.3946 68.756 75.5201ZM75.5078 18.2329C76.6331 18.1203 77.3083 17.5576 77.3083 16.4321C77.3083 15.4191 76.6331 14.7439 75.6203 14.7439C74.6075 14.7439 73.8198 15.3066 73.8198 16.4321C73.7073 17.6701 74.3825 18.1203 75.5078 18.2329ZM18.2299 75.5201C18.1174 74.5071 17.6672 73.8318 16.5419 73.8318C15.4166 73.8318 14.854 74.5071 14.7415 75.5201C14.7415 76.533 15.4166 77.3208 16.4294 77.3208C17.5547 77.2083 18.1174 76.6455 18.2299 75.5201ZM83.61 43.4437C83.7225 44.5692 84.2851 45.132 85.4104 45.132C86.4232 45.132 86.9859 44.5692 86.9859 43.4437C86.9859 42.3182 86.4232 41.6429 85.4104 41.6429C84.2851 41.7555 83.7225 42.4308 83.61 43.4437ZM73.7073 70.4554C73.8198 71.5808 74.3825 72.1436 75.5078 72.1436C76.6331 72.1436 77.1957 71.4683 77.1957 70.3428C77.1957 69.3299 76.5206 68.7671 75.5078 68.7671C74.3825 68.7671 73.8198 69.3299 73.7073 70.4554ZM13.2786 70.4554C13.166 69.3299 12.7159 68.7671 11.5906 68.6546C10.5778 68.6546 9.90266 69.2173 9.79013 70.2303C9.6776 71.3558 10.3528 72.031 11.4781 72.031C12.4909 72.2561 13.0535 71.5808 13.2786 70.4554ZM3.37591 43.4437C3.26338 42.3182 2.70073 41.7555 1.57542 41.7555C0.450121 41.7555 0 42.4308 0 43.5563C0 44.6818 0.675181 45.132 1.68795 45.132C2.81326 45.2445 3.37591 44.5692 3.37591 43.4437ZM45.2372 1.57568C45.1246 0.562743 44.562 0 43.4367 0C42.3114 0 41.8612 0.675291 41.7487 1.57568C41.7487 2.70116 42.4239 3.37646 43.4367 3.26391C44.562 3.37646 45.1246 2.70116 45.2372 1.57568ZM45.2372 85.4243C45.2372 84.2988 44.6745 83.6235 43.5492 83.6235C42.4239 83.6235 41.7487 84.1863 41.7487 85.3118C41.7487 86.3247 42.1988 86.8875 43.3241 87C44.4494 87 45.1246 86.5498 45.2372 85.4243ZM36.4598 7.6533C35.3345 7.76585 34.7718 8.44114 34.7718 9.45407C34.7718 10.467 35.447 11.1423 36.4598 11.1423C37.5851 11.1423 38.2603 10.467 38.2603 9.45407C38.1477 8.32859 37.4726 7.6533 36.4598 7.6533ZM52.214 9.34153C52.1015 8.32859 51.6514 7.6533 50.5261 7.6533C49.5133 7.6533 48.8381 8.21604 48.8381 9.22898C48.7256 10.3545 49.4008 11.0298 50.4135 11.1423C51.5388 11.1423 52.1015 10.467 52.214 9.34153ZM79.3338 50.5343C79.2213 49.5213 78.7712 48.8461 77.6459 48.7335C76.5206 48.7335 75.8454 49.4088 75.8454 50.4217C75.8454 51.4347 76.408 52.11 77.5333 52.11C78.5461 52.2225 79.2213 51.6598 79.3338 50.5343ZM50.5261 79.3467C51.5388 79.2341 52.214 78.5589 52.214 77.4334C52.214 76.4204 51.5388 75.7451 50.5261 75.7451C49.4008 75.7451 48.8381 76.4204 48.8381 77.5459C48.8381 78.784 49.5133 79.2341 50.5261 79.3467ZM38.2603 77.6585C38.1477 76.533 37.5851 75.8577 36.4598 75.8577C35.3345 75.8577 34.7718 76.533 34.7718 77.6585C34.7718 78.6714 35.3345 79.3467 36.4598 79.3467C37.4726 79.3467 38.0352 78.6714 38.2603 77.6585ZM9.34001 52.2225C10.4653 52.11 11.1405 51.5472 11.1405 50.5343C11.1405 49.4088 10.4653 48.8461 9.34001 48.8461C8.32724 48.8461 7.65206 49.4088 7.65206 50.4217C7.65206 51.5472 8.21471 52.11 9.34001 52.2225ZM77.5333 38.2665C78.5461 38.1539 79.2213 37.7038 79.2213 36.5783C79.2213 35.5653 78.6586 34.89 77.6459 34.89C76.5206 34.7775 75.8454 35.4528 75.8454 36.4657C75.8454 37.4787 76.408 38.0414 77.5333 38.2665ZM9.34001 38.2665C10.4653 38.1539 11.1405 37.5912 11.1405 36.4657C11.1405 35.3402 10.4653 34.7775 9.34001 34.7775C8.32724 34.7775 7.65206 35.4528 7.65206 36.4657C7.65206 37.4787 8.32724 38.0414 9.34001 38.2665Z" fill="white"/>
<path d="M37.0227 38.0414C38.148 38.1539 38.8232 38.7167 38.8232 39.8422C38.8232 40.9676 38.148 41.5304 37.1352 41.5304C36.1224 41.5304 35.4473 40.8551 35.4473 39.8422C35.4473 38.7167 36.1224 38.1539 37.0227 38.0414Z" fill="black"/>
<path d="M61.6665 36.9159C61.779 35.7904 62.3417 35.1151 63.3545 35.1151C64.4798 35.1151 65.0424 35.7904 65.1549 36.8034C65.1549 37.8163 64.4798 38.4916 63.467 38.6041C62.4542 38.6041 61.779 37.9289 61.6665 36.9159Z" fill="black"/>
<path d="M23.5187 35.1151C24.5315 35.2277 25.2067 35.7904 25.2067 36.9159C25.2067 38.0414 24.5315 38.6041 23.4062 38.6041C22.3934 38.6041 21.7183 37.9289 21.7183 36.8034C21.7183 35.7904 22.3934 35.1151 23.5187 35.1151Z" fill="black"/>
<path d="M36.6853 61.7891C37.8106 61.7891 38.4858 62.4644 38.5983 63.4774C38.5983 64.4903 38.0356 65.2781 36.9103 65.2781C35.8976 65.2781 35.2224 64.7154 35.1099 63.5899C35.1099 62.4644 35.6725 61.9017 36.6853 61.7891Z" fill="black"/>
<path d="M57.3903 36.4657C57.2778 37.4787 56.7151 38.1539 55.5898 38.0414C54.4645 38.0414 53.9019 37.3661 53.9019 36.2406C53.9019 35.1151 54.577 34.5524 55.7023 34.5524C56.7151 34.6649 57.2778 35.3402 57.3903 36.4657Z" fill="black"/>
<path d="M33.0837 36.4657C32.8586 37.4786 32.2959 38.1539 31.2832 38.1539C30.1579 38.1539 29.5952 37.4786 29.5952 36.3531C29.5952 35.2277 30.3829 34.6649 31.3957 34.6649C32.521 34.6649 33.0837 35.3402 33.0837 36.4657Z" fill="black"/>
<path d="M86.4235 35.7904C86.4235 36.9159 85.8609 37.5912 84.7355 37.7038C83.7228 37.7038 82.9351 37.141 82.9351 36.0155C82.9351 35.0026 83.4977 34.2148 84.623 34.2148C85.6358 34.2148 86.1984 34.89 86.4235 35.7904Z" fill="black"/>
<path d="M50.0759 61.7891C51.0886 61.9017 51.7638 62.3519 51.7638 63.4774C51.7638 64.6028 51.0886 65.2781 50.0759 65.2781C49.0631 65.2781 48.2754 64.6028 48.2754 63.5899C48.3879 62.4644 48.9506 61.9017 50.0759 61.7891Z" fill="black"/>
<path d="M0.5625 35.903C0.67503 34.89 1.23768 34.2148 2.25045 34.2148C3.37576 34.2148 3.93841 34.89 3.93841 35.903C3.93841 36.9159 3.26323 37.5912 2.25045 37.5912C1.23768 37.7038 0.67503 37.0285 0.5625 35.903Z" fill="black"/>
<path d="M50.4133 33.0893C49.4005 32.8642 48.8379 32.3014 48.8379 31.2885C48.8379 30.163 49.5131 29.6003 50.6384 29.6003C51.7637 29.6003 52.3263 30.3881 52.3263 31.401C52.2138 32.5265 51.5386 33.0893 50.4133 33.0893Z" fill="black"/>
<path d="M38.1476 31.401C38.0351 32.414 37.4724 33.0893 36.3471 33.0893C35.2218 33.0893 34.6592 32.414 34.6592 31.2885C34.6592 30.2755 35.3344 29.6003 36.4597 29.6003C37.4724 29.6003 38.0351 30.2755 38.1476 31.401Z" fill="black"/>
<path d="M75.6203 31.7387C74.3825 31.6262 73.8198 30.9509 73.8198 29.9379C73.8198 28.925 74.495 28.2497 75.6203 28.2497C76.6331 28.2497 77.3083 28.925 77.3083 30.0505C77.1957 31.0634 76.5205 31.6262 75.6203 31.7387Z" fill="black"/>
<path d="M11.4782 31.6261C10.3529 31.5136 9.67773 31.0634 9.67773 29.9379C9.67773 28.8124 10.3529 28.1371 11.3657 28.1371C12.3785 28.1371 13.1662 28.8124 13.1662 29.8253C13.1662 30.9508 12.491 31.5136 11.4782 31.6261Z" fill="black"/>
<path d="M74.0451 23.9728C73.9325 25.0983 73.3699 25.7736 72.3571 25.7736C71.2318 25.7736 70.6692 25.0983 70.5566 24.0854C70.5566 23.0724 71.2318 22.3972 72.2446 22.2846C73.3699 22.2846 73.9325 22.9599 74.0451 23.9728Z" fill="black"/>
<path d="M14.5161 22.2846C15.6414 22.3972 16.3166 22.9599 16.3166 23.9728C16.3166 25.0983 15.6414 25.7736 14.6286 25.7736C13.6158 25.7736 12.9407 25.2109 12.8281 24.0854C12.8281 22.9599 13.5033 22.3972 14.5161 22.2846Z" fill="black"/>
<path d="M49.7387 38.0414C50.864 38.1539 51.5392 38.6041 51.5392 39.7296C51.5392 40.8551 50.9766 41.5304 49.8513 41.5304C48.8385 41.5304 48.0508 40.9676 48.0508 39.8422C48.0508 38.8292 48.6134 38.1539 49.7387 38.0414Z" fill="black"/>
<path d="M74.0451 62.9146C73.9325 64.0401 73.4824 64.7154 72.3571 64.7154C71.2318 64.7154 70.5566 64.0401 70.5566 63.0272C70.5566 62.0142 71.1193 61.2264 72.2446 61.2264C73.3699 61.2264 73.9325 61.7891 74.0451 62.9146Z" fill="black"/>
<path d="M14.5161 61.2264C15.6414 61.3389 16.3166 62.0142 16.3166 63.0272C16.3166 64.0401 15.6414 64.7154 14.5161 64.7154C13.3908 64.7154 12.8281 64.0401 12.8281 62.9146C12.9407 61.7891 13.6158 61.3389 14.5161 61.2264Z" fill="black"/>
<path d="M75.3955 55.2613C76.5208 55.3739 77.196 55.8241 77.196 56.9495C77.196 58.075 76.5208 58.7503 75.508 58.7503C74.4952 58.7503 73.7075 58.075 73.7075 57.0621C73.82 56.0492 74.3827 55.4864 75.3955 55.2613Z" fill="black"/>
<path d="M37.1352 48.9586C36.1224 48.8461 35.4473 48.2833 35.4473 47.2704C35.4473 46.1449 36.1224 45.5822 37.1352 45.4696C38.148 45.4696 38.8232 46.1449 38.9357 47.1578C38.9357 48.2833 38.2605 48.8461 37.1352 48.9586Z" fill="black"/>
<path d="M49.7387 48.9586C48.6134 48.8461 48.0508 48.2833 48.0508 47.1578C48.0508 46.0323 48.726 45.4696 49.8513 45.4696C50.864 45.4696 51.5392 46.1449 51.5392 47.2704C51.5392 48.2833 50.864 48.8461 49.7387 48.9586Z" fill="black"/>
<path d="M25.2067 50.1966C25.0942 51.2096 24.5315 51.8848 23.4062 51.7723C22.2809 51.7723 21.7183 50.9845 21.7183 49.9715C21.7183 48.9586 22.506 48.2833 23.5187 48.2833C24.644 48.5084 25.2067 49.0711 25.2067 50.1966Z" fill="black"/>
<path d="M63.4668 51.8849C62.454 51.7723 61.7788 51.2096 61.7788 50.1966C61.7788 49.0712 62.454 48.5084 63.4668 48.3959C64.4795 48.3959 65.1547 49.0712 65.2672 50.0841C65.2672 51.2096 64.5921 51.7723 63.4668 51.8849Z" fill="black"/>
<path d="M11.1404 55.2613C12.3782 55.2613 13.0534 55.9366 13.0534 56.9495C13.0534 57.9625 12.4907 58.7503 11.3654 58.7503C10.3527 58.7503 9.67747 58.1876 9.56494 57.0621C9.67747 55.9366 10.3527 55.4864 11.1404 55.2613Z" fill="black"/>
<path d="M31.2832 48.846C32.4085 48.9586 33.0837 49.5213 33.0837 50.6468C33.0837 51.7723 32.4085 52.335 31.2832 52.335C30.2704 52.335 29.5952 51.6598 29.5952 50.5343C29.5952 49.5213 30.2704 48.9586 31.2832 48.846Z" fill="black"/>
<path d="M53.9019 50.5343C54.0144 49.5213 54.577 48.846 55.7023 48.846C56.8276 48.846 57.3903 49.5213 57.3903 50.5343C57.3903 51.6598 56.7151 52.2225 55.7023 52.2225C54.577 52.335 53.9019 51.6598 53.9019 50.5343Z" fill="black"/>
<path d="M2.13792 52.7852C1.12515 52.6727 0.5625 52.1099 0.5625 50.9845C0.5625 49.859 1.35021 49.2962 2.36298 49.2962C3.37576 49.2962 4.05094 50.0841 4.05094 51.097C4.05094 52.1099 3.37576 52.6727 2.13792 52.7852Z" fill="black"/>
<path d="M86.4235 50.9845C86.311 52.1099 85.7483 52.6727 84.623 52.6727C83.4977 52.6727 82.9351 51.9974 82.9351 50.9845C82.9351 49.9715 83.6102 49.2962 84.7355 49.2962C85.7483 49.2962 86.311 49.9715 86.4235 50.9845Z" fill="black"/>
<path d="M36.5722 53.9107C37.585 54.0233 38.1476 54.6986 38.1476 55.7115C38.1476 56.837 37.4724 57.3997 36.3471 57.3997C35.2218 57.3997 34.6592 56.6119 34.6592 55.599C34.6592 54.4735 35.3344 53.9107 36.5722 53.9107Z" fill="black"/>
<path d="M50.6384 57.3997C49.5131 57.2872 48.8379 56.837 48.8379 55.7115C48.8379 54.586 49.4005 54.0233 50.5258 53.9107C51.6511 53.9107 52.3263 54.586 52.3263 55.599C52.3263 56.6119 51.6511 57.1746 50.6384 57.3997Z" fill="black"/>
<path d="M51.2011 86.4373C49.9633 86.4373 49.2881 85.762 49.2881 84.749C49.2881 83.7361 49.9633 82.9482 50.976 82.9482C51.9888 82.9482 52.664 83.511 52.7765 84.6365C52.7765 85.762 52.1013 86.2122 51.2011 86.4373Z" fill="black"/>
<path d="M34.209 2.25097C34.3215 1.23804 34.8842 0.562744 36.0095 0.562744C37.1348 0.562744 37.6974 1.23804 37.6974 2.25097C37.6974 3.26391 37.0222 3.9392 35.8969 3.9392C34.8842 4.05175 34.3215 3.37646 34.209 2.25097Z" fill="black"/>
<path d="M51.0888 0.562744C52.1016 0.675293 52.7768 1.23804 52.7768 2.36352C52.7768 3.48901 52.1016 4.05175 51.0888 4.05175C50.076 4.05175 49.4009 3.37646 49.4009 2.36352C49.2883 1.23804 49.9635 0.675293 51.0888 0.562744Z" fill="black"/>
<path d="M35.8972 86.4373C34.8844 86.3247 34.3218 85.762 34.3218 84.6365C34.3218 83.511 34.997 82.9482 36.1223 82.9482C37.135 82.9482 37.8102 83.6235 37.8102 84.749C37.6977 85.762 37.0225 86.3247 35.8972 86.4373Z" fill="black"/>
<path d="M31.6208 11.3674C31.5082 12.4929 30.9456 13.1682 29.8203 13.0556C28.8075 13.0556 28.1323 12.3803 28.1323 11.2548C28.1323 10.2419 28.8075 9.56662 29.9328 9.56662C31.0581 9.67917 31.6208 10.3545 31.6208 11.3674Z" fill="black"/>
<path d="M55.2524 11.2549C55.365 10.2419 55.9276 9.56664 57.0529 9.67919C58.1782 9.67919 58.7409 10.3545 58.7409 11.48C58.7409 12.4929 58.0657 13.1682 56.9404 13.1682C55.9276 13.1682 55.365 12.4929 55.2524 11.2549Z" fill="black"/>
<path d="M25.7692 14.5188C25.6567 15.6442 24.9815 16.3195 23.9687 16.3195C22.9559 16.3195 22.2808 15.6442 22.2808 14.5188C22.2808 13.3933 22.9559 12.8305 24.0812 12.8305C25.2065 12.9431 25.6567 13.6184 25.7692 14.5188Z" fill="black"/>
<path d="M61.2163 14.5188C61.4414 13.5058 61.8915 12.8305 63.0168 12.8305C64.1421 12.8305 64.7047 13.5058 64.7047 14.6313C64.7047 15.7568 64.0296 16.3195 62.9043 16.3195C61.8915 16.3195 61.3288 15.6442 61.2163 14.5188Z" fill="black"/>
<path d="M56.9404 77.3208C55.9276 77.2083 55.2524 76.6455 55.2524 75.6326C55.2524 74.5071 55.9276 73.9444 56.9404 73.9444C57.9532 73.9444 58.6284 74.6197 58.7409 75.6326C58.7409 76.6455 58.1782 77.2083 56.9404 77.3208Z" fill="black"/>
<path d="M31.6208 75.6326C31.5082 76.6455 30.9456 77.3208 29.8203 77.3208C28.695 77.3208 28.1323 76.533 28.1323 75.52C28.1323 74.5071 28.92 73.8318 29.9328 73.8318C31.0581 73.8318 31.6208 74.5071 31.6208 75.6326Z" fill="black"/>
<path d="M64.7047 72.3687C64.5922 73.3816 64.0296 74.0569 63.0168 74.0569C61.8915 74.0569 61.3288 73.3816 61.2163 72.3687C61.2163 71.2432 61.8915 70.6805 62.9043 70.5679C63.917 70.5679 64.5922 71.2432 64.7047 72.3687Z" fill="black"/>
<path d="M25.7692 72.2561C25.6567 73.3816 25.2065 74.0569 24.0812 74.0569C22.9559 74.0569 22.2808 73.4942 22.2808 72.3687C22.2808 71.2432 22.9559 70.5679 23.9687 70.5679C24.9815 70.5679 25.5441 71.2432 25.7692 72.2561Z" fill="black"/>
<path d="M51.8766 23.4101C51.8766 24.5356 51.314 25.2109 50.1887 25.2109C49.0634 25.2109 48.3882 24.6481 48.3882 23.5226C48.3882 22.5097 48.9508 21.7219 50.0761 21.7219C51.0889 21.7219 51.7641 22.2846 51.8766 23.4101Z" fill="black"/>
<path d="M36.9103 25.2109C35.785 25.0983 35.2224 24.5356 35.1099 23.4101C35.1099 22.2846 35.785 21.7219 36.7978 21.7219C37.8106 21.7219 38.4858 22.3972 38.4858 23.4101C38.5983 24.5356 37.9231 25.0983 36.9103 25.2109Z" fill="black"/>
<path d="M25.432 23.6352C25.3195 24.7607 24.6443 25.436 23.6315 25.3234C22.5062 25.3234 21.9436 24.6481 22.0561 23.5226C22.1687 22.5097 22.7313 21.947 23.7441 21.947C24.7568 21.947 25.3195 22.6223 25.432 23.6352Z" fill="black"/>
<path d="M63.2419 21.947C64.3672 22.0595 65.0424 22.5097 65.0424 23.6352C65.0424 24.6481 64.4798 25.3234 63.467 25.3234C62.3417 25.436 61.6665 24.7607 61.6665 23.6352C61.554 22.6223 62.2292 22.0595 63.2419 21.947Z" fill="black"/>
<path d="M72.3571 50.9845C72.2446 52.11 71.5694 52.7853 70.5566 52.6727C69.4313 52.6727 68.8687 51.9974 68.8687 50.8719C68.8687 49.7465 69.5438 49.1837 70.6691 49.1837C71.6819 49.2963 72.2446 49.9716 72.3571 50.9845Z" fill="black"/>
<path d="M16.3171 52.6727C15.3044 52.4476 14.6292 51.8849 14.7417 50.7594C14.8542 49.6339 15.5294 49.0711 16.5422 49.1837C17.6675 49.2962 18.2302 49.9715 18.1176 50.9845C18.0051 52.1099 17.3299 52.6727 16.3171 52.6727Z" fill="black"/>
<path d="M22.2807 5.62741C23.406 5.73996 24.0812 6.19015 24.0812 7.31564C24.0812 8.44112 23.5186 9.00387 22.3933 9.11642C21.268 9.11642 20.7053 8.44112 20.5928 7.42819C20.5928 6.3027 21.268 5.73996 22.2807 5.62741Z" fill="black"/>
<path d="M62.9043 7.20311C63.0168 6.19017 63.692 5.51488 64.7048 5.62743C65.8301 5.73998 66.3927 6.41527 66.2802 7.42821C66.1677 8.44114 65.4925 9.11644 64.4797 9.00389C63.3544 9.00389 62.9043 8.3286 62.9043 7.20311Z" fill="black"/>
<path d="M64.5923 81.3726C63.5795 81.26 62.9043 80.6973 62.9043 79.6843C62.9043 78.5589 63.4669 77.9961 64.5923 77.8836C65.7176 77.8836 66.2802 78.5589 66.3927 79.5718C66.3927 80.6973 65.7176 81.26 64.5923 81.3726Z" fill="black"/>
<path d="M24.0812 79.6843C23.9687 80.6973 23.406 81.3726 22.2807 81.3726C21.1554 81.3726 20.5928 80.5847 20.5928 79.5718C20.5928 78.5589 21.268 77.8836 22.3933 77.8836C23.5186 77.8836 24.0812 78.5589 24.0812 79.6843Z" fill="black"/>
<path d="M23.5188 65.053C22.506 64.9405 21.8308 64.3777 21.9434 63.2523C21.9434 62.2393 22.6186 61.564 23.6313 61.564C24.7566 61.564 25.4318 62.2393 25.4318 63.2523C25.3193 64.4903 24.6441 65.053 23.5188 65.053Z" fill="black"/>
<path d="M65.0424 63.3648C64.9299 64.3777 64.4797 65.053 63.3544 65.053C62.3417 65.053 61.6665 64.4903 61.6665 63.4774C61.5539 62.3519 62.2291 61.6766 63.3544 61.6766C64.3672 61.564 64.9299 62.2393 65.0424 63.3648Z" fill="black"/>
<path d="M37.8102 70.5679C37.6977 71.5809 37.135 72.2562 36.1223 72.3687C34.997 72.3687 34.4343 71.806 34.3218 70.6805C34.3218 69.555 34.997 68.9922 36.0097 68.8797C37.0225 68.7671 37.5852 69.4424 37.8102 70.5679Z" fill="black"/>
<path d="M5.62646 64.6028C5.739 63.5899 6.30165 62.9146 7.31442 62.9146C8.43972 62.9146 9.00237 63.4774 9.1149 64.6028C9.1149 65.7283 8.43972 66.2911 7.42695 66.4036C6.30165 66.4036 5.739 65.7283 5.62646 64.6028Z" fill="black"/>
<path d="M9.1149 22.5097C9.00237 23.5226 8.32719 24.1979 7.31442 24.0854C6.18912 24.0854 5.62646 23.4101 5.62646 22.2846C5.62646 21.1591 6.41418 20.5964 7.42695 20.5964C8.43972 20.7089 9.00237 21.3842 9.1149 22.5097Z" fill="black"/>
<path d="M51.0886 72.3687C49.9633 72.2561 49.2881 71.6934 49.2881 70.5679C49.2881 69.4424 49.9633 68.8797 50.976 68.8797C51.9888 68.8797 52.664 69.555 52.664 70.5679C52.664 71.6934 51.9888 72.1436 51.0886 72.3687Z" fill="black"/>
<path d="M16.3169 37.8163C15.3041 37.5912 14.6289 37.0285 14.6289 36.0155C14.6289 34.89 15.3041 34.3273 16.4294 34.3273C17.5547 34.3273 18.1173 35.0026 18.1173 36.1281C18.1173 37.141 17.4422 37.7038 16.3169 37.8163Z" fill="black"/>
<path d="M81.3595 22.5097C81.1345 23.5226 80.6843 24.1979 79.559 24.0854C78.4337 24.0854 77.8711 23.4101 77.8711 22.2846C77.8711 21.1591 78.6588 20.5964 79.6716 20.5964C80.6844 20.7089 81.247 21.3842 81.3595 22.5097Z" fill="black"/>
<path d="M72.3571 36.1281C72.2446 37.141 71.5694 37.8163 70.5566 37.8163C69.5438 37.8163 68.8687 37.141 68.8687 36.0155C68.8687 35.0026 69.5438 34.3273 70.6691 34.3273C71.6819 34.3273 72.2446 35.0026 72.3571 36.1281Z" fill="black"/>
<path d="M37.8102 16.3195C37.6977 17.445 37.0225 18.1203 36.0097 18.1203C34.997 18.1203 34.3218 17.445 34.3218 16.3195C34.3218 15.1941 34.997 14.6313 36.1223 14.6313C37.135 14.6313 37.5852 15.4192 37.8102 16.3195Z" fill="black"/>
<path d="M52.6642 16.4321C52.5517 17.445 51.989 18.1203 50.8637 18.1203C49.7384 18.1203 49.1758 17.445 49.1758 16.3195C49.1758 15.1941 49.851 14.6313 50.9763 14.6313C52.1016 14.6313 52.5517 15.4192 52.6642 16.4321Z" fill="black"/>
<path d="M77.8711 64.6028C77.9836 63.5899 78.5463 62.9146 79.559 62.9146C80.6843 62.9146 81.247 63.4774 81.3595 64.6028C81.3595 65.7283 80.6844 66.2911 79.6716 66.4036C78.5463 66.4036 77.9836 65.7283 77.8711 64.6028Z" fill="black"/>
<path d="M28.8074 5.96508C27.7946 5.85253 27.1194 5.28979 27.232 4.1643C27.232 3.15137 27.9071 2.58862 28.9199 2.47607C30.0452 2.47607 30.7204 3.15137 30.7204 4.1643C30.6079 5.28979 29.9327 5.96508 28.8074 5.96508Z" fill="black"/>
<path d="M59.7536 4.16431C59.7536 5.28979 59.1909 5.96508 58.0656 5.96508C56.9403 5.96508 56.2651 5.28979 56.2651 4.27686C56.2651 3.26392 56.8278 2.58863 57.8406 2.58863C59.0784 2.47608 59.7536 3.03882 59.7536 4.16431Z" fill="black"/>
<path d="M80.9092 28.925C81.0217 27.912 81.4718 27.2368 82.5971 27.2368C83.7224 27.2368 84.2851 27.912 84.2851 29.0375C84.2851 30.0505 83.6099 30.7258 82.5971 30.7258C81.6969 30.6132 81.0217 30.0505 80.9092 28.925Z" fill="black"/>
<path d="M2.47607 28.925C2.5886 27.7995 3.15126 27.1242 4.27656 27.2367C5.40186 27.2367 5.96451 27.912 5.85198 29.0375C5.85198 30.0504 5.1768 30.6132 4.16403 30.6132C3.15126 30.6132 2.5886 29.9379 2.47607 28.925Z" fill="black"/>
<path d="M58.0659 81.0349C59.0786 81.1475 59.7538 81.5977 59.7538 82.7232C59.7538 83.8486 59.0786 84.4114 58.0659 84.5239C57.0531 84.5239 56.3779 83.8486 56.3779 82.9482C56.2654 81.7102 56.9406 81.1475 58.0659 81.0349Z" fill="black"/>
<path d="M28.8081 84.4114C27.7953 84.2988 27.1201 83.7361 27.1201 82.6106C27.1201 81.5977 27.7953 80.9224 28.8081 80.9224C29.9334 80.9224 30.6086 81.5977 30.6086 82.6106C30.6086 83.7361 29.9334 84.4114 28.8081 84.4114Z" fill="black"/>
<path d="M5.9638 58.1876C5.85127 59.2005 5.28862 59.8758 4.16331 59.7633C3.15054 59.7633 2.58789 59.088 2.58789 58.075C2.58789 56.9495 3.26307 56.2743 4.38837 56.3868C5.40115 56.3868 5.9638 57.0621 5.9638 58.1876Z" fill="black"/>
<path d="M84.3976 58.075C84.2851 59.088 83.7224 59.7633 82.5971 59.7633C81.5844 59.7633 80.9092 59.088 80.9092 58.075C80.9092 56.9496 81.4718 56.2743 82.5971 56.2743C83.7224 56.3868 84.3976 56.9496 84.3976 58.075Z" fill="black"/>
<path d="M66.3931 68.0919C66.5056 67.0789 67.0682 66.4036 68.1935 66.4036C69.2063 66.4036 69.8815 67.0789 69.8815 68.0919C69.8815 69.2173 69.2063 69.8926 68.1935 69.8926C67.0682 69.8926 66.3931 69.2173 66.3931 68.0919Z" fill="black"/>
<path d="M31.0583 67.7542C30.9457 68.7671 30.3831 69.4424 29.2578 69.4424C28.1325 69.4424 27.5698 68.7671 27.5698 67.6417C27.5698 66.6287 28.245 65.9534 29.2578 65.9534C30.3831 66.066 30.9457 66.6287 31.0583 67.7542Z" fill="black"/>
<path d="M43.5495 59.3131C42.4242 59.2005 41.749 58.7503 41.749 57.6248C41.749 56.4994 42.4242 55.8241 43.437 55.8241C44.4497 55.8241 45.1249 56.3868 45.1249 57.3997C45.2375 58.5252 44.6748 59.2005 43.5495 59.3131Z" fill="black"/>
<path d="M19.2426 55.9366C20.3679 56.0492 21.0431 56.7245 20.9306 57.7374C20.9306 58.7503 20.2554 59.4256 19.1301 59.4256C18.1173 59.4256 17.5547 58.7503 17.5547 57.7374C17.5547 56.6119 18.2299 56.0492 19.2426 55.9366Z" fill="black"/>
<path d="M65.9429 57.6248C66.0554 56.4994 66.6181 55.8241 67.7434 55.9366C68.8687 55.9366 69.4313 56.6119 69.4313 57.7374C69.4313 58.7503 68.7561 59.4256 67.7434 59.4256C66.6181 59.4256 66.0554 58.7503 65.9429 57.6248Z" fill="black"/>
<path d="M60.4285 57.7374C59.4157 57.5123 58.7405 56.9496 58.853 55.8241C58.853 54.8111 59.5282 54.2484 60.541 54.2484C61.6663 54.2484 62.3415 54.9237 62.229 56.0492C62.229 57.0621 61.5538 57.6249 60.4285 57.7374Z" fill="black"/>
<path d="M41.749 71.5809C41.8616 70.4554 42.4242 69.8926 43.5495 69.8926C44.6748 69.8926 45.2375 70.5679 45.2375 71.6934C45.2375 72.7064 44.5623 73.3816 43.5495 73.3816C42.4242 73.2691 41.8616 72.7064 41.749 71.5809Z" fill="black"/>
<path d="M28.2453 56.0492C28.1327 57.0621 27.5701 57.7374 26.4448 57.7374C25.432 57.7374 24.7568 57.0621 24.7568 56.0492C24.7568 54.9237 25.432 54.2484 26.4448 54.2484C27.5701 54.2484 28.1327 54.9237 28.2453 56.0492Z" fill="black"/>
<path d="M31.0585 58.7503C32.1838 58.8629 32.859 59.4256 32.859 60.5511C32.859 61.6766 32.0713 62.2393 31.0585 62.2393C30.0458 62.2393 29.3706 61.564 29.3706 60.5511C29.2581 59.4256 29.9332 58.8629 31.0585 58.7503Z" fill="black"/>
<path d="M45.2375 78.3338C45.1249 79.4592 44.5623 80.022 43.437 80.022C42.3117 80.022 41.749 79.3467 41.749 78.2212C41.749 77.2083 42.4242 76.533 43.437 76.533C44.5623 76.533 45.1249 77.2083 45.2375 78.3338Z" fill="black"/>
<path d="M57.6154 65.9534C58.6282 66.066 59.4159 66.6287 59.3034 67.7542C59.3034 68.8797 58.6282 69.4424 57.5029 69.4424C56.4901 69.4424 55.9275 68.7671 55.8149 67.7542C55.9275 66.6287 56.6027 66.066 57.6154 65.9534Z" fill="black"/>
<path d="M43.437 66.2911C42.3117 66.1785 41.749 65.5032 41.749 64.4903C41.749 63.3648 42.5367 62.8021 43.5495 62.9146C44.5623 62.9146 45.1249 63.5899 45.1249 64.6029C45.2375 65.6158 44.5623 66.1785 43.437 66.2911Z" fill="black"/>
<path d="M20.5934 68.2044C20.4809 69.3299 19.8057 69.8926 18.7929 69.8926C17.7802 69.8926 17.105 69.2173 17.105 68.2044C17.105 67.1915 17.7802 66.5162 18.9055 66.5162C20.0308 66.4036 20.5934 67.0789 20.5934 68.2044Z" fill="black"/>
<path d="M57.7282 60.4386C57.6157 61.564 57.053 62.2393 56.0402 62.2393C55.0275 62.2393 54.2397 61.6766 54.2397 60.5511C54.2397 59.5382 54.8024 58.8629 55.8152 58.8629C56.9405 58.7503 57.5031 59.3131 57.7282 60.4386Z" fill="black"/>
<path d="M43.437 6.97803C44.5623 7.09058 45.2375 7.65332 45.2375 8.66625C45.2375 9.79174 44.5623 10.3545 43.437 10.3545C42.4242 10.3545 41.749 9.79174 41.749 8.66625C41.749 7.65332 42.3117 7.09058 43.437 6.97803Z" fill="black"/>
<path d="M43.3243 17.1074C42.199 16.8823 41.6363 16.207 41.8614 15.0815C41.9739 13.956 42.7616 13.5058 43.8869 13.6184C44.8997 13.7309 45.4624 14.5188 45.3498 15.5317C45.1248 16.6572 44.3371 17.1074 43.3243 17.1074Z" fill="black"/>
<path d="M13.2785 16.4321C13.1659 17.5576 12.7158 18.1203 11.5905 18.2329C10.5777 18.2329 9.90255 17.6701 9.79001 16.6572C9.67748 15.5317 10.3527 14.8564 11.478 14.8564C12.4907 14.7439 13.0534 15.4191 13.2785 16.4321Z" fill="black"/>
<path d="M20.5927 18.7956C20.4802 19.8086 20.0301 20.4838 18.9047 20.4838C17.7794 20.4838 17.2168 19.8086 17.2168 18.7956C17.2168 17.7827 17.892 17.1074 18.9047 17.1074C19.805 17.1074 20.4802 17.6701 20.5927 18.7956Z" fill="black"/>
<path d="M68.081 20.5964C67.0682 20.4838 66.3931 19.9211 66.3931 18.7956C66.3931 17.7827 67.0682 17.1074 67.9685 17.1074C69.0938 17.1074 69.769 17.6701 69.769 18.7956C69.8815 19.9211 69.2063 20.4838 68.081 20.5964Z" fill="black"/>
<path d="M29.145 17.445C30.2703 17.5576 30.9455 18.1203 30.9455 19.1332C30.9455 20.2587 30.2703 20.8215 29.145 20.8215C28.1322 20.8215 27.457 20.1462 27.457 19.1332C27.5696 18.2328 28.2447 17.6701 29.145 17.445Z" fill="black"/>
<path d="M57.7282 21.0466C56.7154 20.934 55.9277 20.3713 55.9277 19.2458C55.9277 18.2329 56.4904 17.5576 57.6157 17.5576C58.741 17.5576 59.4162 18.1203 59.4162 19.2458C59.4162 20.2588 58.741 20.8215 57.7282 21.0466Z" fill="black"/>
<path d="M45.2371 22.6223C45.0121 23.7477 44.3369 24.3105 43.2116 24.0854C42.0863 23.9728 41.6362 23.185 41.7487 22.0595C41.8612 21.0466 42.6489 20.4838 43.6617 20.5964C44.787 20.8215 45.2371 21.6093 45.2371 22.6223Z" fill="black"/>
<path d="M31.0585 28.2497C29.9332 28.1371 29.2581 27.5744 29.3706 26.4489C29.3706 25.436 30.0458 24.7607 31.0585 24.7607C32.1838 24.7607 32.859 25.436 32.859 26.4489C32.7465 27.5744 32.0713 28.1371 31.0585 28.2497Z" fill="black"/>
<path d="M57.7282 26.4489C57.6157 27.4618 57.053 28.1371 55.9277 28.1371C54.9149 28.1371 54.2397 27.4618 54.2397 26.4489C54.2397 25.3234 54.9149 24.6481 55.9277 24.6481C56.9405 24.7607 57.6157 25.436 57.7282 26.4489Z" fill="black"/>
<path d="M20.9308 29.2626C20.8183 30.2756 20.2556 31.0634 19.1303 31.0634C18.1176 31.0634 17.4424 30.5007 17.4424 29.4877C17.4424 28.3622 18.005 27.6869 19.1303 27.6869C20.2556 27.5744 20.8183 28.2497 20.9308 29.2626Z" fill="black"/>
<path d="M43.4367 27.687C44.562 27.7995 45.1247 28.3622 45.1247 29.4877C45.1247 30.6132 44.4495 31.176 43.3242 31.176C42.3114 31.176 41.6362 30.5007 41.6362 29.4877C41.7488 28.3622 42.4239 27.7995 43.4367 27.687Z" fill="black"/>
<path d="M69.4313 29.3751C69.3188 30.3881 68.7561 31.0634 67.6308 31.0634C66.6181 31.0634 65.9429 30.3881 65.9429 29.3751C65.9429 28.2497 66.6181 27.5744 67.6308 27.5744C68.8687 27.5744 69.4313 28.2497 69.4313 29.3751Z" fill="black"/>
<path d="M28.2453 31.1759C28.0202 32.3014 27.4576 32.8642 26.3323 32.7516C25.3195 32.6391 24.7568 31.9638 24.7568 30.9508C24.7568 29.8253 25.432 29.2626 26.5573 29.2626C27.6826 29.3752 28.1327 30.0504 28.2453 31.1759Z" fill="black"/>
<path d="M60.4292 32.8642C59.4164 32.7516 58.7412 32.1889 58.7412 31.0634C58.7412 30.0505 59.4164 29.3752 60.4292 29.3752C61.5545 29.3752 62.2296 30.0505 62.2296 31.0634C62.2296 32.0763 61.5545 32.7516 60.4292 32.8642Z" fill="black"/>
<path d="M43.5495 37.9289C42.4242 37.8163 41.749 37.2536 41.749 36.2406C41.749 35.1151 42.4242 34.5524 43.5495 34.5524C44.5623 34.5524 45.2375 35.1151 45.2375 36.2406C45.2375 37.141 44.6748 37.8163 43.5495 37.9289Z" fill="black"/>
<path d="M8.44002 45.2445C7.31472 45.0194 6.75207 44.3441 6.97713 43.2186C7.08966 42.0931 7.87737 41.6429 9.00267 41.7555C10.0154 41.868 10.5781 42.6559 10.4656 43.6688C10.2405 44.7943 9.56532 45.2445 8.44002 45.2445Z" fill="black"/>
<path d="M15.417 45.2445C14.2917 45.132 13.729 44.5692 13.729 43.4437C13.729 42.3182 14.4042 41.7555 15.5295 41.7555C16.5423 41.7555 17.2174 42.4308 17.2174 43.4437C17.1049 44.5692 16.4297 45.132 15.417 45.2445Z" fill="black"/>
<path d="M24.194 43.5563C24.0815 44.6818 23.5188 45.2445 22.3935 45.2445C21.2682 45.2445 20.7056 44.5692 20.7056 43.4437C20.7056 42.4308 21.3807 41.8681 22.3935 41.8681C23.5188 41.7555 24.0815 42.4308 24.194 43.5563Z" fill="black"/>
<path d="M31.1713 43.4437C31.0588 44.5692 30.4961 45.2445 29.4834 45.2445C28.3581 45.2445 27.7954 44.5692 27.7954 43.4437C27.7954 42.4308 28.3581 41.7555 29.4834 41.7555C30.4961 41.7555 31.0588 42.3182 31.1713 43.4437Z" fill="black"/>
<path d="M45.2372 43.5563C45.1247 44.6818 44.4495 45.2445 43.4367 45.2445C42.3114 45.132 41.7488 44.4567 41.8613 43.3312C41.9738 42.3182 42.649 41.7555 43.6618 41.7555C44.562 41.7555 45.1247 42.4308 45.2372 43.5563Z" fill="black"/>
<path d="M45.2372 50.8719C45.1247 51.9974 44.4495 52.5602 43.4367 52.5602C42.3114 52.4476 41.7488 51.7723 41.8613 50.6468C41.9738 49.6339 42.649 49.0712 43.6618 49.0712C44.562 49.0712 45.1247 49.7465 45.2372 50.8719Z" fill="black"/>
<path d="M59.3036 43.5563C59.1911 44.6818 58.5159 45.2445 57.5031 45.2445C56.3778 45.132 55.8152 44.4567 55.9277 43.4437C56.0402 42.4308 56.6029 41.8681 57.6157 41.8681C58.6284 41.7555 59.1911 42.4308 59.3036 43.5563Z" fill="black"/>
<path d="M64.4802 41.7555C65.6055 41.868 66.2807 42.4308 66.1681 43.5563C66.1681 44.6818 65.4929 45.2445 64.3676 45.2445C63.3549 45.2445 62.6797 44.5692 62.6797 43.5563C62.7922 42.4308 63.4674 41.868 64.4802 41.7555Z" fill="black"/>
<path d="M73.257 43.4437C73.1445 44.5692 72.5818 45.2445 71.4565 45.2445C70.3312 45.2445 69.7686 44.5692 69.7686 43.4437C69.7686 42.4308 70.4437 41.7555 71.4565 41.7555C72.5818 41.7555 73.1445 42.3182 73.257 43.4437Z" fill="black"/>
<path d="M78.3212 41.7555C79.4465 41.868 80.0092 42.4308 80.0092 43.5563C80.0092 44.6818 79.334 45.2445 78.2087 45.2445C77.1959 45.2445 76.6333 44.5692 76.6333 43.5563C76.5207 42.4308 77.1959 41.868 78.3212 41.7555Z" fill="black"/>
<path d="M70.3315 13.2808C69.3187 13.1682 68.6436 12.6055 68.6436 11.48C68.6436 10.467 69.3187 9.79175 70.3315 9.79175C71.4568 9.79175 72.132 10.467 72.132 11.5925C72.132 12.6055 71.4568 13.1682 70.3315 13.2808Z" fill="black"/>
<path d="M18.2299 11.48C18.1174 12.4929 17.5547 13.1682 16.542 13.1682C15.4167 13.1682 14.854 12.4929 14.854 11.48C14.854 10.467 15.5292 9.79175 16.542 9.79175C17.5547 9.79175 18.2299 10.3545 18.2299 11.48Z" fill="black"/>
<path d="M68.7559 75.52C68.8684 74.3946 69.431 73.8318 70.5563 73.8318C71.6816 73.8318 72.2443 74.5071 72.2443 75.6326C72.2443 76.6455 71.5691 77.3208 70.5563 77.3208C69.431 77.2083 68.7559 76.6455 68.7559 75.52Z" fill="black"/>
<path d="M75.5078 18.2329C74.495 18.1203 73.8198 17.5576 73.8198 16.4321C73.8198 15.3066 74.495 14.7439 75.6203 14.7439C76.6331 14.7439 77.3083 15.4192 77.3083 16.4321C77.1957 17.5576 76.6331 18.1203 75.5078 18.2329Z" fill="black"/>
<path d="M18.2301 75.52C18.1176 76.6455 17.555 77.3208 16.4297 77.2083C15.3044 77.2083 14.7417 76.533 14.7417 75.4075C14.7417 74.3946 15.4169 73.7193 16.5422 73.7193C17.6675 73.8318 18.2301 74.3946 18.2301 75.52Z" fill="black"/>
<path d="M83.6099 43.4437C83.7224 42.3182 84.285 41.7555 85.4103 41.7555C86.5356 41.7555 87.0983 42.4308 86.9858 43.5563C86.9858 44.6818 86.3106 45.132 85.4103 45.2445C84.285 45.2445 83.7224 44.5692 83.6099 43.4437Z" fill="black"/>
<path d="M73.7075 70.4554C73.82 69.3299 74.3827 68.6546 75.508 68.6546C76.5208 68.6546 77.196 69.3299 77.196 70.2303C77.196 71.3558 76.6333 72.031 75.508 72.031C74.4952 72.2561 73.82 71.5808 73.7075 70.4554Z" fill="black"/>
<path d="M13.279 70.4554C13.1664 71.5809 12.4913 72.1436 11.4785 72.1436C10.3532 72.0311 9.79053 71.3558 9.79053 70.3428C9.90306 69.3299 10.4657 68.7672 11.591 68.7672C12.6038 68.7672 13.1664 69.4424 13.279 70.4554Z" fill="black"/>
<path d="M3.37591 43.4437C3.26338 44.5692 2.81326 45.2445 1.68795 45.2445C0.675181 45.2445 0.11253 44.7943 0 43.6688C0 42.5433 0.450121 41.868 1.57542 41.868C2.70073 41.7555 3.26338 42.3182 3.37591 43.4437Z" fill="black"/>
<path d="M45.2372 1.57566C45.1247 2.70114 44.5621 3.37644 43.5493 3.37644C42.424 3.37644 41.8613 2.70114 41.8613 1.68821C41.8613 0.675272 42.424 0.112529 43.5493 0.112529C44.5621 -1.92523e-05 45.1247 0.562723 45.2372 1.57566Z" fill="black"/>
<path d="M45.2375 85.4243C45.1249 86.5498 44.5623 87 43.3244 87C42.1991 87 41.749 86.3247 41.749 85.3118C41.749 84.1863 42.4242 83.6235 43.5495 83.6235C44.6748 83.6235 45.1249 84.2988 45.2375 85.4243Z" fill="black"/>
<path d="M36.4599 7.65329C37.5852 7.76584 38.2604 8.32858 38.2604 9.45407C38.2604 10.5796 37.5852 11.2548 36.4599 11.1423C35.4471 11.1423 34.7719 10.467 34.7719 9.45407C34.6594 8.32858 35.3346 7.76584 36.4599 7.65329Z" fill="black"/>
<path d="M52.2138 9.34155C52.1012 10.467 51.4261 11.1423 50.4133 11.0298C49.288 10.9172 48.7253 10.2419 48.8379 9.11645C48.9504 8.10351 49.513 7.54077 50.5258 7.54077C51.6511 7.65332 52.1012 8.32861 52.2138 9.34155Z" fill="black"/>
<path d="M79.3334 50.5343C79.2209 51.6598 78.5457 52.335 77.4204 52.2225C76.4076 52.2225 75.7324 51.5472 75.7324 50.5343C75.7324 49.4088 76.4076 48.846 77.5329 48.846C78.7707 48.846 79.2209 49.5213 79.3334 50.5343Z" fill="black"/>
<path d="M50.5261 79.3467C49.4008 79.2341 48.7256 78.6714 48.7256 77.6585C48.7256 76.533 49.4008 75.8577 50.4135 75.8577C51.4263 75.8577 52.1015 76.4204 52.1015 77.5459C52.214 78.5589 51.6514 79.2341 50.5261 79.3467Z" fill="black"/>
<path d="M38.2599 77.6585C38.1474 78.6714 37.5847 79.3467 36.4594 79.3467C35.4467 79.3467 34.884 78.6714 34.7715 77.6585C34.7715 76.533 35.4467 75.8577 36.4594 75.8577C37.5847 75.8577 38.1474 76.533 38.2599 77.6585Z" fill="black"/>
<path d="M9.33981 52.2225C8.32704 52.1099 7.65186 51.5472 7.65186 50.4217C7.65186 49.4088 8.32704 48.846 9.33981 48.846C10.4651 48.846 11.1403 49.5213 11.1403 50.5343C11.1403 51.6598 10.3526 52.2225 9.33981 52.2225Z" fill="black"/>
<path d="M77.5331 38.2665C76.4078 38.1539 75.7327 37.4786 75.8452 36.4657C75.8452 35.3402 76.6329 34.7775 77.6457 34.89C78.6584 35.0026 79.2211 35.5653 79.2211 36.5782C79.3336 37.5912 78.6584 38.1539 77.5331 38.2665Z" fill="black"/>
<path d="M9.33981 38.2665C8.32704 38.1539 7.65186 37.5912 7.65186 36.4657C7.65186 35.4528 8.32704 34.7775 9.33981 34.7775C10.4651 34.7775 11.1403 35.3402 11.1403 36.4657C11.1403 37.5912 10.4651 38.1539 9.33981 38.2665Z" fill="black"/>
</svg>
