<svg xmlns="http://www.w3.org/2000/svg" width="77" height="77" fill="none"><path fill="#fff" d="M39 75.5c0-.8.6-1.5 1.4-1.6.8 0 1.5.6 1.6 1.4.1.8-.6 1.5-1.4 1.6h-.1c-.7 0-1.4-.6-1.5-1.4zm-5.6 1.2c-.8-.1-1.4-.9-1.3-1.7.1-.8.9-1.4 1.7-1.3.8.1 1.4.9 1.3 1.7-.1.8-.8 1.3-1.5 1.3h-.2zM46 74.8a1.5 1.5 0 1 1 1.8 1.1h-.4c-.6 0-1.2-.5-1.4-1.1zm-19.7.2c-.8-.3-1.2-1.1-.9-1.9.3-.8 1.1-1.2 1.9-.9.8.3 1.2 1.1 1 1.9-.2.6-.8 1-1.4 1l-.6-.1zm26.4-2.3c-.4-.8 0-1.6.7-2 .8-.4 1.6 0 2 .7.4.8 0 1.6-.7 2l-.6.2c-.6-.1-1.2-.4-1.4-.9zm-33.1-.6c-.7-.4-1-1.3-.6-2s1.3-1 2.1-.6c.7.4 1 1.3.6 2-.3.5-.8.8-1.3.8-.3 0-.5 0-.8-.2zm39.2-2.7c-.5-.7-.3-1.6.3-2.1.7-.5 1.6-.3 2.1.3.5.7.3 1.6-.3 2.1l-.9.3c-.4 0-.9-.2-1.2-.6zM13.6 68c-.6-.5-.7-1.5-.2-2.1.5-.6 1.5-.7 2.1-.2.6.5.7 1.5.2 2.1-.3.3-.7.5-1.1.5a2 2 0 0 1-1-.3zm50.7-3c-.6-.6-.6-1.5-.1-2.1.6-.6 1.5-.6 2.1-.1.6.6.6 1.5.1 2.1-.3.3-.7.5-1.1.5-.4 0-.7-.1-1-.4zM8.5 62.8c-.5-.6-.4-1.6.2-2.1.7-.5 1.6-.4 2.1.2.5.6.4 1.6-.2 2.1-.3.2-.6.3-1 .3-.3 0-.8-.1-1.1-.5zm60.3-3.2c-.7-.4-.9-1.4-.5-2.1.4-.7 1.4-.9 2.1-.5.7.4.9 1.4.5 2.1-.3.5-.8.7-1.3.7-.3.1-.5 0-.8-.2zM4.5 56.8c-.4-.7-.1-1.6.6-2 .7-.4 1.6-.1 2 .6.4.7.1 1.6-.6 2l-.7.2c-.5-.1-1-.3-1.3-.8zm67.7-3.2c-.8-.3-1.1-1.2-.8-2 .3-.8 1.2-1.1 1.9-.8.8.3 1.1 1.2.8 2-.2.6-.8 1-1.4 1a.8.8 0 0 0-.5-.2zM1.7 50.1c-.2-.8.2-1.6 1-1.9.8-.2 1.6.2 1.9 1 .2.8-.2 1.6-1 1.9l-.5.1c-.6-.1-1.2-.5-1.4-1.1zm72.8-3.2c-.8-.2-1.4-.9-1.2-1.8.2-.8.9-1.3 1.8-1.2.8.2 1.3.9 1.2 1.8-.1.7-.8 1.2-1.5 1.2h-.3zM.2 43c-.1-.8.5-1.6 1.3-1.7.8-.1 1.6.5 1.7 1.3.1.8-.5 1.6-1.3 1.7h-.2C.9 44.3.2 43.7.2 43zm73.7-4.5l.2-.8-.2-.8c0-.8.6-1.5 1.4-1.6.8 0 1.5.6 1.6 1.4l-.2.8.2.8c0 .8-.7 1.5-1.5 1.5-.8.2-1.5-.5-1.5-1.3zM1.4 37.3c-.8-.1-1.4-.8-1.4-1.6.1-.8.8-1.5 1.6-1.4.8.1 1.4.8 1.4 1.6s-.7 1.4-1.5 1.4h-.1zm71.6-7a1.5 1.5 0 1 1 1.8 1.1h-.3c-.8.1-1.4-.4-1.5-1.1zm-70.7 0a1.5 1.5 0 1 1 1.8-1.1c-.2.7-.8 1.1-1.5 1.1h-.3zM70.8 24c-.3-.8 0-1.6.8-2 .8-.3 1.6 0 2 .8.3.8 0 1.6-.8 2l-.6.1c-.6 0-1.1-.3-1.4-.9zm-66.3-.3c-.8-.4-1.1-1.3-.7-2 .3-.7 1.2-1.1 2-.7.7.4 1 1.3.7 2-.3.5-.8.8-1.4.8l-.6-.1zm63-5.5c-.5-.7-.3-1.6.4-2.1s1.6-.3 2.1.4.3 1.6-.4 2.1l-.9.3c-.4-.1-.9-.3-1.2-.7zm-59.7-.6c-.7-.5-.8-1.4-.3-2.1.5-.7 1.5-.8 2.1-.3.7.5.8 1.4.3 2.1-.3.4-.8.6-1.2.6l-.9-.3zm55.4-4.5c-.6-.6-.6-1.5 0-2.1.6-.6 1.5-.6 2.1 0 .6.6.6 1.5 0 2.1-.3.3-.7.5-1.1.5l-1-.5zm-50.9-.9c-.6-.6-.5-1.6.1-2.1.6-.6 1.6-.5 2.1.1.6.6.5 1.6-.1 2.1-.3.3-.7.4-1 .4-.4 0-.8-.2-1.1-.5zm45.6-3.4c-.7-.5-.9-1.4-.4-2.1.5-.7 1.4-.9 2.1-.4.7.5.9 1.4.4 2.1-.3.4-.8.7-1.3.7l-.8-.3zm-40.2-1c-.4-.7-.2-1.6.5-2.1.7-.4 1.6-.2 2.1.5.4.7.2 1.6-.5 2.1-.2.2-.5.2-.8.2-.5 0-1-.3-1.3-.7zM52 5.7c-.8-.3-1.1-1.2-.8-2 .3-.8 1.2-1.1 2-.8.8.3 1.1 1.2.8 2-.2.6-.8.9-1.4.9l-.6-.1zM23.9 4.4c-.3-.8.1-1.6.9-1.9.8-.3 1.6.1 1.9.9.3.7-.1 1.6-.9 1.9l-.5.1c-.6 0-1.2-.4-1.4-1zm21.7-.7c-.8-.2-1.3-1-1.2-1.8.2-.8 1-1.3 1.8-1.2.8.2 1.3 1 1.2 1.8-.1.7-.8 1.2-1.5 1.2h-.3zM30.5 2.3c-.1-.8.4-1.6 1.2-1.7.8-.1 1.6.4 1.7 1.2.2.8-.4 1.6-1.2 1.7H32c-.7 0-1.3-.5-1.5-1.2zM39 3c-.8 0-1.5-.7-1.5-1.5 0-.9.7-1.5 1.5-1.5s1.5.7 1.5 1.5S39.8 3 39 3z"/></svg>