<svg width="100" height="100" viewBox="0 0 100 100" fill="none" xmlns="http://www.w3.org/2000/svg">
<path d="M0 50C0 22.3858 22.3858 0 50 0V0C77.6142 0 100 22.3858 100 50V50C100 77.6142 77.6142 100 50 100V100C22.3858 100 0 77.6142 0 50V50Z" fill="white"/>
<path d="M35.255 50.473C35.255 46.307 36.978 42.544 39.749 39.856L28.873 28.98C28.82 29.033 28.765 29.084 28.712 29.137C25.942 31.907 23.767 35.133 22.247 38.727C20.673 42.449 19.874 46.402 19.874 50.473C19.874 54.545 20.672 58.497 22.247 62.219C23.728 65.721 25.833 68.873 28.502 71.594L39.379 60.717C36.826 58.059 35.255 54.45 35.255 50.473ZM77.849 62.219C79.423 58.496 80.222 54.544 80.222 50.473C80.222 46.401 79.424 42.449 77.849 38.727C76.329 35.133 74.154 31.907 71.384 29.137C71.331 29.084 71.277 29.033 71.223 28.98L60.348 39.855C63.119 42.544 64.842 46.307 64.842 50.472C64.842 54.449 63.271 58.058 60.718 60.717L71.595 71.594C74.263 68.873 76.368 65.721 77.849 62.219Z" fill="#18191A"/>
</svg>
