<svg width="233" height="100" viewBox="0 0 233 100" fill="#18191A" fill-rule="evenodd" clip-rule="evenodd" xmlns="http://www.w3.org/2000/svg">
<path d="M20.512 36.065H16V64.495H20.512V48.893C20.512 41.882 24.154 40.09 29.861 39.817V35.576C24.751 35.739 22.306 37.967 20.512 41.177V36.065Z"/>
<path d="M31.389 50.144V50.58C31.389 59.33 37.097 64.985 45.141 64.983C51.556 64.983 56.285 61.993 57.263 56.286H52.751C52.154 59.602 49.598 61.232 45.196 61.232C39.379 61.232 36.281 57.647 36.063 51.178H57.481V49.708C57.481 39.544 51.285 35.576 44.706 35.576C36.878 35.576 31.389 41.556 31.389 50.144ZM44.706 39.328C49.381 39.328 52.426 41.667 52.86 47.537H36.226C36.988 42.481 40.086 39.328 44.706 39.328Z"/>
<path d="M65.898 55.745H61.494C61.767 61.559 65.843 64.985 72.638 64.984C79.541 64.984 83.075 61.505 83.075 56.34C83.075 50.306 78.944 49.003 73.074 47.915C67.856 46.99 66.442 45.959 66.442 43.405C66.442 40.957 68.562 39.327 71.823 39.327C75.41 39.327 77.149 40.684 77.801 43.784H82.15C81.39 37.64 76.986 35.575 71.876 35.575C67.42 35.575 62.256 38.293 62.256 43.568C62.256 48.514 64.755 50.579 72.149 51.94C76.553 52.755 78.781 53.733 78.781 56.723C78.781 59.766 76.879 61.233 72.583 61.233C68.018 61.233 66.224 59.114 65.898 55.745Z"/>
<path d="M122.79 36.065H118.278L118.277 64.496H122.789V47.264C122.789 42.155 126.539 39.491 130.725 39.491C135.292 39.491 137.412 41.72 137.412 46.722V64.497H141.924V47.049C141.924 38.783 137.793 35.577 131.921 35.577C127.247 35.577 124.094 37.915 122.79 40.579V36.065Z"/>
<path d="M160.408 47.806C153.124 47.806 146.166 50.038 146.166 56.613C146.166 62.43 150.351 64.985 155.626 64.985C159.811 64.985 162.366 63.571 164.486 60.907V64.496H168.998V45.741C168.998 37.805 164.05 35.577 158.616 35.577C153.124 35.577 147.961 37.968 147.362 44.437H151.874C152.31 40.958 154.483 39.328 158.398 39.328C162.747 39.328 164.486 41.23 164.486 45.74V47.806H160.408ZM164.485 51.016V54.548C164.485 58.951 160.843 61.396 156.058 61.396C152.091 61.396 150.677 59.55 150.677 56.613C150.677 52.43 154.863 51.016 160.57 51.016H164.485Z"/>
<path d="M176.577 39.87V57.375C176.577 61.832 179.078 64.875 184.242 64.875C186.09 64.875 187.177 64.606 188.102 64.28V60.475C187.124 60.854 186.037 61.07 184.623 61.07C182.34 61.07 181.089 59.713 181.089 56.939V39.87H187.721V36.065H181.089V29.596H176.577V36.065H172.501V39.87H176.577Z"/>
<path d="M191.127 50.144V50.58C191.127 59.33 196.835 64.985 204.879 64.983C211.294 64.983 216.023 61.993 217.001 56.286H212.489C211.892 59.602 209.336 61.232 204.934 61.232C199.117 61.232 196.019 57.647 195.801 51.178H217.219V49.708C217.219 39.544 211.023 35.576 204.444 35.576C196.616 35.576 191.127 41.556 191.127 50.144ZM204.444 39.328C209.119 39.328 212.164 41.667 212.598 47.537H195.964C196.726 42.481 199.824 39.328 204.444 39.328Z"/>
<path d="M85.6062 50.036C85.6062 41.91 92.1942 35.322 100.32 35.322C108.447 35.322 115.035 41.909 115.034 50.036C115.034 58.162 108.447 64.75 100.32 64.75C92.1942 64.75 85.6062 58.162 85.6062 50.036ZM100.322 60.988C106.477 60.988 110.346 56.694 110.346 50.282V49.899C110.346 43.324 106.418 39.083 100.322 39.083C94.1652 39.083 90.2962 43.324 90.2962 49.846V50.282C90.2962 56.751 94.1072 60.988 100.322 60.988Z"/>
</svg>
