<svg width="76" height="104" viewBox="0 0 76 104" fill="none" xmlns="http://www.w3.org/2000/svg">
<path d="M35.4001 80.2133C34.7001 79.7133 34.6001 78.8133 35.1001 78.1133C35.6001 77.4133 36.5001 77.3134 37.2001 77.8134C37.9001 78.3134 38.0001 79.2134 37.5001 79.9134C37.2001 80.3134 36.8001 80.5133 36.3001 80.5133C36.0001 80.5133 35.7001 80.5133 35.4001 80.2133ZM38.9001 75.3134C38.2001 74.9134 37.9001 74.0134 38.3001 73.3134C38.7001 72.6134 39.6001 72.3133 40.3001 72.7133C41.0001 73.1133 41.3001 74.0133 40.9001 74.7133C40.6001 75.2133 40.1001 75.5133 39.6001 75.5133C39.4001 75.5133 39.1001 75.5134 38.9001 75.3134ZM41.6001 70.0133C40.8001 69.7134 40.4001 68.8133 40.7001 68.1133C41.0001 67.3133 41.9001 66.9133 42.6001 67.2133C43.4001 67.5133 43.8001 68.4133 43.5001 69.1133C43.3001 69.7133 42.7001 70.1133 42.1001 70.1133C42.0001 70.1133 41.8001 70.1133 41.6001 70.0133ZM43.6001 64.3134C42.8001 64.1134 42.3001 63.3133 42.5001 62.5133C42.7001 61.7134 43.5001 61.2134 44.3001 61.4134C45.1001 61.6134 45.6001 62.4134 45.4001 63.2134C45.2001 63.9134 44.6001 64.4134 43.9001 64.4134C43.8001 64.4134 43.7001 64.4134 43.6001 64.3134ZM44.7001 58.4134C43.9001 58.3134 43.3001 57.6133 43.3001 56.8133C43.4001 56.0133 44.1001 55.4134 44.9001 55.4134C45.7001 55.5134 46.3001 56.2134 46.3001 57.0133C46.2001 57.8133 45.6001 58.4134 44.8001 58.4134C44.7001 58.4134 44.7001 58.4134 44.7001 58.4134ZM43.3001 51.0133C43.3001 50.2134 43.9001 49.5134 44.7001 49.4134C45.5001 49.4134 46.2001 50.0133 46.3001 50.8133C46.4001 51.6133 45.7001 52.3134 44.9001 52.4134H44.8001C44.1001 52.4134 43.4001 51.8133 43.3001 51.0133ZM42.6001 45.3133C42.4001 44.5133 43.0001 43.7134 43.8001 43.5133C44.6001 43.3133 45.4001 43.8134 45.6001 44.7134C45.8001 45.5133 45.2001 46.3133 44.4001 46.5133C44.3001 46.5133 44.2001 46.5133 44.1001 46.5133C43.4001 46.5133 42.7001 46.0133 42.6001 45.3133ZM41.0001 39.7134C40.7001 38.9134 41.1001 38.1133 41.9001 37.8133C42.7001 37.5133 43.5001 37.9134 43.8001 38.7134C44.1001 39.5134 43.7001 40.3133 42.9001 40.6133C42.7001 40.7133 42.6001 40.7134 42.4001 40.7134C41.8001 40.7134 41.2001 40.4134 41.0001 39.7134ZM38.7001 34.5133C38.3001 33.8133 38.6001 32.8133 39.3001 32.5133C40.0001 32.1133 40.9001 32.4133 41.3001 33.1133C41.7001 33.8133 41.4001 34.7133 40.7001 35.1133C40.5001 35.2133 40.2001 35.3133 40.0001 35.3133C39.5001 35.3133 38.9001 35.0133 38.7001 34.5133ZM35.6001 29.6133C35.1001 28.9133 35.3001 28.0133 35.9001 27.5133C36.6001 27.0133 37.5001 27.2133 38.0001 27.8133C38.5001 28.5133 38.3001 29.4133 37.7001 29.9133C37.4001 30.1133 37.1001 30.2134 36.8001 30.2134C36.4001 30.2134 35.9001 30.0134 35.6001 29.6133Z" fill="black"/>
<path d="M38.9001 84.1133C38.2001 83.6133 38.1001 82.6133 38.7001 82.0133C39.2001 81.4134 40.2001 81.2134 40.8001 81.8134C41.5001 82.3134 41.6001 83.3134 41.0001 83.9134C40.7001 84.3134 40.3001 84.5133 39.8001 84.5133C39.5001 84.4134 39.2001 84.3133 38.9001 84.1133ZM42.5001 79.2133C41.8001 78.8133 41.6001 77.9133 42.0001 77.1133C42.4001 76.4133 43.3001 76.2133 44.1001 76.6133C44.8001 77.0133 45.0001 77.9133 44.6001 78.7133C44.3001 79.2133 43.8001 79.4134 43.3001 79.4134C43.0001 79.5133 42.7001 79.4133 42.5001 79.2133ZM45.4001 74.0133C44.6001 73.7134 44.3001 72.8133 44.6001 72.0133C44.9001 71.2134 45.8001 70.9133 46.6001 71.2133C47.4001 71.5133 47.7001 72.4133 47.4001 73.2133C47.2001 73.8133 46.6001 74.1133 46.0001 74.1133C45.8001 74.1133 45.6001 74.1133 45.4001 74.0133ZM47.7001 68.4134C46.9001 68.2134 46.5001 67.3133 46.7001 66.5133C46.9001 65.7134 47.8001 65.3133 48.6001 65.5133C49.4001 65.7134 49.8001 66.6134 49.6001 67.4134C49.4001 68.1134 48.8001 68.5133 48.2001 68.5133C48.0001 68.5133 47.8001 68.5133 47.7001 68.4134ZM49.2001 62.6133C48.4001 62.5133 47.8001 61.7134 48.0001 60.9134C48.1001 60.1134 48.9001 59.5133 49.7001 59.7134C50.5001 59.8133 51.1001 60.6134 50.9001 61.4134C50.8001 62.1134 50.1001 62.7134 49.4001 62.7134C49.4001 62.7134 49.3001 62.7133 49.2001 62.6133ZM50.0001 56.7134C49.2001 56.7134 48.5001 56.0133 48.5001 55.2134C48.5001 54.4134 49.2001 53.7134 50.1001 53.8133C50.9001 53.8133 51.6001 54.5133 51.5001 55.3133C51.5001 56.1133 50.8001 56.7134 50.0001 56.7134ZM48.4001 49.3133C48.3001 48.5133 48.9001 47.7134 49.8001 47.7134C50.6001 47.6133 51.4001 48.2133 51.4001 49.1133C51.5001 49.9133 50.9001 50.6133 50.0001 50.7134H49.9001C49.1001 50.7134 48.4001 50.1133 48.4001 49.3133ZM47.5001 43.6133C47.3001 42.8133 47.8001 42.0133 48.6001 41.8133C49.4001 41.6133 50.2001 42.1134 50.4001 42.9134C50.6001 43.7134 50.1001 44.5133 49.3001 44.7134C49.2001 44.7134 49.1001 44.7134 49.0001 44.7134C48.2001 44.8134 47.6001 44.3133 47.5001 43.6133ZM45.8001 38.0133C45.5001 37.2134 45.9001 36.4133 46.7001 36.1133C47.5001 35.8133 48.3001 36.2133 48.6001 37.0133C48.9001 37.8133 48.5001 38.6134 47.7001 38.9134C47.6001 39.0134 47.4001 39.0133 47.3001 39.0133C46.6001 39.0133 46.1001 38.6133 45.8001 38.0133ZM43.5001 32.7134C43.1001 32.0134 43.4001 31.1133 44.2001 30.7134C44.9001 30.3134 45.8001 30.6133 46.2001 31.4133C46.6001 32.1133 46.3001 33.0134 45.6001 33.4134C45.4001 33.5134 45.1001 33.6133 44.9001 33.6133C44.3001 33.5133 43.8001 33.2134 43.5001 32.7134ZM40.6001 27.7133C40.1001 27.0134 40.3001 26.1133 41.0001 25.6133C41.7001 25.1133 42.6001 25.3133 43.1001 26.0133C43.6001 26.7133 43.4001 27.6133 42.7001 28.1133C42.4001 28.3133 42.2001 28.4133 41.9001 28.4133C41.3001 28.4133 40.9001 28.1133 40.6001 27.7133ZM37.0001 23.1133C36.5001 22.5133 36.5001 21.5133 37.1001 21.0133C37.7001 20.5133 38.7001 20.5133 39.2001 21.1133C39.8001 21.7133 39.7001 22.7133 39.1001 23.2133C38.8001 23.4133 38.5001 23.6133 38.1001 23.6133C37.7001 23.6133 37.3001 23.5133 37.0001 23.1133Z" fill="black"/>
<path d="M41.9 89.4134C41.3 88.9134 41.2 87.9134 41.7 87.3134C42.3 86.7134 43.2 86.6133 43.8 87.2133C44.4 87.7133 44.5 88.7134 44 89.3134C43.7 89.7134 43.3 89.8134 42.9 89.8134C42.5 89.7134 42.1 89.6133 41.9 89.4134ZM45.7 84.7133C45 84.2133 44.9 83.3133 45.3 82.6133C45.8 81.9133 46.7 81.7133 47.4 82.2133C48.1 82.7133 48.3 83.6134 47.8 84.3134C47.5 84.8134 47 85.0133 46.5 85.0133C46.2 85.0133 45.9 84.9133 45.7 84.7133ZM48.9 79.7133C48.2 79.3133 47.9 78.4133 48.3 77.7133C48.7 77.0133 49.6 76.7133 50.3 77.1133C51 77.5133 51.3 78.4133 50.9 79.1133C50.6 79.6133 50.1 79.9134 49.6 79.9134C49.4 79.9134 49.1 79.8133 48.9 79.7133ZM51.6 74.3134C50.8 74.0134 50.5 73.1134 50.8 72.4134C51.1 71.6134 52 71.2133 52.8 71.6133C53.6 71.9133 53.9 72.8133 53.6 73.5133C53.4 74.1133 52.8 74.5133 52.2 74.5133C51.9 74.4134 51.8 74.4134 51.6 74.3134ZM53.6 68.7133C52.8 68.5133 52.3 67.7134 52.5 66.9134C52.7 66.1134 53.5 65.6134 54.3 65.8134C55.1 66.0134 55.6 66.8133 55.4 67.6133C55.2 68.3133 54.6 68.7133 53.9 68.7133C53.9 68.7133 53.7 68.7133 53.6 68.7133ZM55 62.9134C54.2 62.8134 53.6 62.0133 53.7 61.2134C53.8 60.4134 54.6 59.8134 55.4 59.9134C56.2 60.0133 56.8 60.8133 56.7 61.6133C56.6 62.4133 55.9 62.9134 55.2 62.9134C55.1 62.9134 55.1 62.9134 55 62.9134ZM55.7 56.9134C54.9 56.9134 54.2 56.2134 54.3 55.4134C54.3 54.6134 55 53.9134 55.8 53.9134C56.6 53.9134 57.3 54.6133 57.3 55.5133C57.2 56.3133 56.6 56.9134 55.7 56.9134ZM54.1 49.5133C54 48.7134 54.6 48.0134 55.5 47.9134C56.3 47.8134 57 48.5133 57.1 49.3133C57.2 50.1133 56.6 50.8134 55.7 50.9134H55.6C54.9 50.9134 54.2 50.3133 54.1 49.5133ZM53.4 43.7134C53.2 42.9134 53.8 42.1134 54.6 41.9134C55.4 41.7134 56.2 42.3133 56.4 43.1133C56.6 43.9133 56 44.7134 55.2 44.9134C55.1 44.9134 55 44.9134 54.9 44.9134C54.1 45.0134 53.5 44.5133 53.4 43.7134ZM51.9 38.1133C51.7 37.3133 52.1 36.5133 52.9 36.2134C53.7 36.0134 54.5 36.4134 54.8 37.2134C55 38.0133 54.6 38.8133 53.8 39.1133C53.6 39.1133 53.5 39.2134 53.3 39.2134C52.7 39.1133 52.1 38.7133 51.9 38.1133ZM49.9 32.6133C49.6 31.8133 49.9 31.0133 50.7 30.6133C51.5 30.3133 52.3 30.6133 52.7 31.4133C53 32.2133 52.7 33.0134 51.9 33.4134C51.7 33.5134 51.5 33.5133 51.3 33.5133C50.7 33.5133 50.1 33.2133 49.9 32.6133ZM47.2 27.5134C46.8 26.8134 47 25.9133 47.7 25.4133C48.4 25.0133 49.3 25.2133 49.7 25.9133C50.1 26.6133 49.9 27.5134 49.2 28.0134C49 28.1133 48.7 28.2134 48.4 28.2134C48 28.2134 47.5 27.9134 47.2 27.5134ZM44 22.6134C43.5 21.9134 43.6 21.0133 44.3 20.5133C45 20.0133 45.9 20.1133 46.4 20.8133C46.9 21.5133 46.8 22.4133 46.1 22.9133C45.8 23.1133 45.5 23.2134 45.2 23.2134C44.7 23.2134 44.3 23.0134 44 22.6134Z" fill="black"/>
<path d="M43.0999 97.3133C42.4999 96.7134 42.4999 95.8133 43.0999 95.2133C43.6999 94.6133 44.5999 94.6133 45.1999 95.2133C45.7999 95.8133 45.7999 96.7134 45.1999 97.3133C44.8999 97.6134 44.4999 97.7133 44.0999 97.7133C43.6999 97.7133 43.2999 97.6134 43.0999 97.3133ZM48.1999 91.9133C47.5999 91.4133 47.4999 90.4133 47.9999 89.8133C48.4999 89.1134 49.4999 89.0133 50.0999 89.6133C50.7999 90.1133 50.8999 91.1133 50.2999 91.7133C49.9999 92.1133 49.5999 92.3133 49.0999 92.3133C48.7999 92.3133 48.3999 92.2134 48.1999 91.9133ZM51.7999 87.2133C51.0999 86.7133 50.8999 85.8133 51.3999 85.1133C51.8999 84.4133 52.7999 84.2133 53.4999 84.7133C54.1999 85.1133 54.3999 86.1134 53.8999 86.8133C53.5999 87.2134 53.0999 87.5133 52.5999 87.5133C52.2999 87.4133 52.0999 87.3133 51.7999 87.2133ZM54.9999 82.1133C54.2999 81.7133 53.9999 80.8133 54.3999 80.1133C54.7999 79.4133 55.6999 79.1133 56.3999 79.4133C57.0999 79.8133 57.3999 80.7134 57.0999 81.4133C56.7999 81.9133 56.2999 82.2133 55.7999 82.2133C55.3999 82.2133 55.1999 82.2133 54.9999 82.1133ZM57.5999 76.7133C56.7999 76.4133 56.3999 75.5134 56.7999 74.8134C57.0999 74.0134 57.9999 73.6133 58.6999 74.0134C59.4999 74.3133 59.8999 75.2134 59.5999 76.0134C59.3999 76.6134 58.7999 77.0133 58.1999 77.0133C57.8999 76.8133 57.6999 76.7133 57.5999 76.7133ZM59.5999 71.0134C58.7999 70.8133 58.2999 69.9133 58.5999 69.1133C58.7999 68.3133 59.6999 67.8133 60.4999 68.1133C61.2999 68.3133 61.7999 69.1133 61.4999 70.0134C61.2999 70.7134 60.6999 71.1133 59.9999 71.1133C59.8999 71.1133 59.7999 71.1133 59.5999 71.0134ZM61.0999 65.2133C60.2999 65.1133 59.6999 64.3133 59.8999 63.5134C59.9999 62.7134 60.7999 62.1133 61.5999 62.3133C62.3999 62.4133 62.9999 63.2134 62.7999 64.0134C62.6999 64.7134 61.9999 65.2133 61.2999 65.2133C61.2999 65.2133 61.1999 65.2133 61.0999 65.2133ZM61.9999 59.3133C61.1999 59.2134 60.4999 58.5134 60.5999 57.7134C60.6999 56.9134 61.3999 56.2134 62.1999 56.3133C62.9999 56.4133 63.5999 57.1134 63.5999 57.9134C63.5999 58.7134 62.8999 59.3133 62.0999 59.3133C61.9999 59.3133 61.9999 59.3133 61.9999 59.3133ZM60.6999 51.8133C60.6999 51.0134 61.2999 50.3133 62.1999 50.3133C62.9999 50.3133 63.6999 50.9133 63.6999 51.8133C63.6999 52.6133 63.0999 53.3133 62.1999 53.3133C61.3999 53.3133 60.6999 52.6133 60.6999 51.8133ZM60.1999 46.0134C60.0999 45.2134 60.6999 44.4133 61.4999 44.3133C62.2999 44.2134 63.0999 44.8133 63.1999 45.6133C63.2999 46.4133 62.6999 47.2134 61.8999 47.3133C61.7999 47.3133 61.7999 47.3133 61.6999 47.3133C60.9999 47.3133 60.2999 46.8133 60.1999 46.0134ZM59.1999 40.3133C58.9999 39.5133 59.4999 38.7133 60.2999 38.5133C61.0999 38.3133 61.8999 38.8133 62.0999 39.6133C62.2999 40.4133 61.7999 41.2133 60.9999 41.4134C60.8999 41.4134 60.7999 41.4134 60.6999 41.4134C59.9999 41.4134 59.2999 41.0133 59.1999 40.3133ZM57.5999 34.6133C57.2999 33.8133 57.6999 33.0133 58.4999 32.7133C59.2999 32.4134 60.0999 32.8133 60.3999 33.6133C60.6999 34.4133 60.1999 35.2133 59.4999 35.5133C59.2999 35.6133 59.1999 35.6133 58.9999 35.6133C58.3999 35.7133 57.7999 35.3133 57.5999 34.6133ZM55.3999 29.2133C55.0999 28.4134 55.3999 27.6133 56.0999 27.2133C56.8999 26.9133 57.6999 27.2133 58.0999 27.9133C58.4999 28.7133 58.0999 29.6133 57.3999 29.9133C57.1999 30.0133 56.9999 30.0133 56.7999 30.0133C56.1999 30.1133 55.5999 29.8133 55.3999 29.2133ZM52.5999 24.1133C52.1999 23.4133 52.3999 22.5133 53.0999 22.0133C53.7999 21.6133 54.6999 21.8133 55.1999 22.5133C55.5999 23.2133 55.3999 24.1133 54.6999 24.6133C54.4999 24.7133 54.1999 24.8133 53.8999 24.8133C53.3999 24.8133 52.8999 24.5133 52.5999 24.1133ZM49.3999 19.2133C48.8999 18.5134 49.0999 17.6133 49.6999 17.1133C50.3999 16.6133 51.2999 16.7133 51.7999 17.4133C52.2999 18.1133 52.1999 19.0133 51.4999 19.5133C51.1999 19.7133 50.8999 19.8133 50.5999 19.8133C50.1999 19.8133 49.6999 19.6133 49.3999 19.2133ZM45.6999 14.7133C45.0999 14.1133 45.1999 13.1133 45.7999 12.6133C46.3999 12.0133 47.3999 12.1133 47.8999 12.7133C48.4999 13.3133 48.3999 14.3133 47.7999 14.8133C47.4999 15.1133 47.1999 15.2133 46.7999 15.2133C46.3999 15.2133 45.9999 15.0133 45.6999 14.7133Z" fill="black"/>
<path d="M47.0999 101.113C46.4999 100.513 46.4999 99.6133 47.0999 99.0133C47.6999 98.4134 48.5999 98.4134 49.1999 99.0133C49.7999 99.6133 49.7999 100.513 49.1999 101.113C48.8999 101.413 48.4999 101.513 48.0999 101.513C47.6999 101.613 47.2999 101.413 47.0999 101.113ZM51.2999 96.8134C50.6999 96.3134 50.5999 95.3133 51.0999 94.7133C51.5999 94.1133 52.5999 94.0133 53.1999 94.5133C53.7999 95.0133 53.8999 96.0133 53.3999 96.6133C53.0999 96.9134 52.6999 97.1133 52.2999 97.1133C51.8999 97.2133 51.4999 97.1134 51.2999 96.8134ZM54.9999 92.2133C54.2999 91.7133 54.1999 90.8133 54.5999 90.1133C55.0999 89.4134 55.9999 89.3133 56.6999 89.7133C57.3999 90.2133 57.4999 91.1134 57.0999 91.8134C56.7999 92.2134 56.2999 92.4134 55.8999 92.4134C55.5999 92.5133 55.2999 92.4133 54.9999 92.2133ZM58.3999 87.2133C57.6999 86.8133 57.3999 85.9133 57.8999 85.2133C58.2999 84.5133 59.1999 84.2133 59.8999 84.6133C60.5999 85.0133 60.8999 85.9133 60.3999 86.7133C60.0999 87.2133 59.5999 87.5133 59.0999 87.5133C58.8999 87.4134 58.5999 87.3133 58.3999 87.2133ZM61.2999 81.9134C60.4999 81.6133 60.1999 80.7134 60.5999 79.9134C60.8999 79.1133 61.7999 78.8133 62.5999 79.2133C63.3999 79.5133 63.6999 80.4133 63.2999 81.2133C63.0999 81.8133 62.4999 82.1133 61.8999 82.1133C61.6999 82.1133 61.4999 82.0133 61.2999 81.9134ZM63.5999 76.4134C62.7999 76.1133 62.3999 75.3134 62.6999 74.5133C62.9999 73.7133 63.7999 73.3133 64.5999 73.6133C65.3999 73.9133 65.7999 74.7133 65.4999 75.5133C65.2999 76.1133 64.6999 76.5133 64.0999 76.5133C63.9999 76.5133 63.7999 76.5133 63.5999 76.4134ZM65.4999 70.7133C64.6999 70.5133 64.1999 69.7133 64.3999 68.9134C64.5999 68.1134 65.3999 67.6134 66.1999 67.8134C66.9999 68.0134 67.4999 68.8133 67.2999 69.6133C67.0999 70.3133 66.4999 70.7133 65.7999 70.7133C65.6999 70.8133 65.5999 70.8133 65.4999 70.7133ZM66.7999 64.9134C65.9999 64.8134 65.3999 64.0133 65.4999 63.2133C65.5999 62.4134 66.3999 61.8134 67.1999 61.9134C67.9999 62.0133 68.5999 62.8133 68.4999 63.6133C68.3999 64.4133 67.6999 64.9134 66.9999 64.9134C66.9999 64.9134 66.8999 64.9134 66.7999 64.9134ZM67.5999 58.9134C66.7999 58.9134 66.0999 58.1133 66.1999 57.3133C66.1999 56.5133 66.9999 55.8134 67.7999 55.9134C68.5999 55.9134 69.2999 56.7133 69.1999 57.5133C69.0999 58.3133 68.4999 58.9134 67.5999 58.9134ZM66.2999 51.5133C66.2999 50.7133 66.8999 50.0133 67.6999 50.0133C68.4999 50.0133 69.1999 50.6133 69.2999 51.5133C69.2999 52.3133 68.6999 53.0133 67.7999 53.0133C66.8999 52.9134 66.2999 52.3133 66.2999 51.5133ZM65.7999 45.6133C65.6999 44.8133 66.2999 44.0133 67.0999 43.9134C67.8999 43.8134 68.6999 44.4134 68.7999 45.2133C68.8999 46.0133 68.2999 46.8134 67.4999 46.9134C67.3999 46.9134 67.3999 46.9134 67.2999 46.9134C66.4999 47.0133 65.8999 46.4133 65.7999 45.6133ZM64.7999 39.9134C64.5999 39.1134 65.0999 38.3133 65.8999 38.1133C66.6999 37.9133 67.4999 38.4134 67.6999 39.2133C67.8999 40.0133 67.3999 40.8133 66.5999 41.0133C66.4999 41.0133 66.3999 41.0133 66.2999 41.0133C65.5999 41.0133 64.9999 40.6134 64.7999 39.9134ZM63.2999 34.2133C63.0999 33.4134 63.4999 32.6133 64.2999 32.3133C65.0999 32.0133 65.8999 32.5133 66.1999 33.3133C66.3999 34.1133 65.9999 34.9134 65.1999 35.2133C64.9999 35.2133 64.8999 35.3133 64.6999 35.3133C64.0999 35.3133 63.4999 34.9134 63.2999 34.2133ZM61.1999 28.7133C60.8999 27.9134 61.1999 27.1133 61.9999 26.7133C62.7999 26.4133 63.5999 26.7133 63.9999 27.5133C64.2999 28.3133 63.9999 29.1133 63.1999 29.5133C62.9999 29.6133 62.7999 29.6133 62.5999 29.6133C61.9999 29.6133 61.4999 29.3133 61.1999 28.7133ZM58.6999 23.5133C58.2999 22.8133 58.5999 21.9133 59.2999 21.5133C59.9999 21.1133 60.8999 21.4133 61.2999 22.1133C61.6999 22.8133 61.3999 23.7133 60.6999 24.1133C60.4999 24.2133 60.1999 24.3133 59.9999 24.3133C59.4999 24.2133 58.9999 24.0133 58.6999 23.5133ZM55.6999 18.4133C55.1999 17.7133 55.3999 16.8133 56.0999 16.3133C56.7999 15.8133 57.6999 16.0133 58.1999 16.7133C58.6999 17.4133 58.4999 18.3133 57.7999 18.8133C57.4999 19.0133 57.2999 19.0133 56.9999 19.0133C56.3999 19.1133 55.8999 18.9133 55.6999 18.4133ZM52.1999 13.7133C51.6999 13.0133 51.7999 12.1133 52.3999 11.6133C52.9999 11.1133 53.9999 11.2133 54.4999 11.8133C54.9999 12.4133 54.8999 13.4133 54.2999 13.9133C53.9999 14.1133 53.6999 14.2133 53.3999 14.2133C52.8999 14.3133 52.4999 14.1133 52.1999 13.7133Z" fill="black"/>
<path d="M53.6001 103.513C53.0001 102.913 53.0001 102.013 53.5001 101.413C54.1001 100.813 55.0001 100.813 55.6001 101.313C56.2001 101.913 56.2001 102.813 55.7001 103.413C55.4001 103.713 55.0001 103.913 54.6001 103.913C54.3001 103.913 53.9001 103.713 53.6001 103.513ZM57.7001 99.0133C57.1001 98.5133 56.9001 97.5133 57.5001 96.9133C58.0001 96.2133 59.0001 96.1133 59.6001 96.7133C60.3001 97.2133 60.4001 98.2133 59.8001 98.8133C59.5001 99.2133 59.1001 99.4133 58.6001 99.4133C58.3001 99.4133 57.9001 99.2133 57.7001 99.0133ZM61.3001 94.3133C60.6001 93.8133 60.4001 92.9133 60.9001 92.2133C61.4001 91.5133 62.3001 91.3133 63.0001 91.8133C63.7001 92.3133 63.9001 93.2133 63.4001 93.9133C63.1001 94.3133 62.6001 94.6133 62.2001 94.6133C61.8001 94.5133 61.6001 94.4133 61.3001 94.3133ZM64.5001 89.2133C63.8001 88.8133 63.5001 87.9133 63.9001 87.2133C64.3001 86.5133 65.2001 86.2133 65.9001 86.6133C66.6001 87.0133 66.9001 87.9133 66.5001 88.6133C66.2001 89.1133 65.7001 89.4133 65.2001 89.4133C65.0001 89.4133 64.8001 89.3133 64.5001 89.2133ZM67.3001 83.9133C66.5001 83.6133 66.2001 82.7133 66.5001 81.9133C66.8001 81.1133 67.7001 80.8133 68.5001 81.1133C69.3001 81.4133 69.6001 82.3133 69.3001 83.1133C69.0001 83.7133 68.5001 84.0133 67.9001 84.0133C67.7001 84.0133 67.5001 84.0133 67.3001 83.9133ZM69.6001 78.4133C68.8001 78.1133 68.4001 77.3133 68.7001 76.5133C69.0001 75.7133 69.8001 75.3133 70.6001 75.6133C71.4001 75.9133 71.8001 76.7133 71.5001 77.5133C71.3001 78.1133 70.7001 78.5133 70.1001 78.5133C70.0001 78.5133 69.8001 78.4133 69.6001 78.4133ZM71.5001 72.7133C70.7001 72.5133 70.2001 71.7133 70.4001 70.9134C70.6001 70.1134 71.4001 69.6134 72.2001 69.8134C73.0001 70.0134 73.5001 70.8133 73.3001 71.6133C73.1001 72.3133 72.5001 72.7133 71.8001 72.7133C71.7001 72.7133 71.6001 72.7133 71.5001 72.7133ZM72.9001 66.8134C72.1001 66.7134 71.5001 65.9133 71.7001 65.1133C71.8001 64.3133 72.6001 63.7133 73.4001 63.9134C74.2001 64.0133 74.8001 64.8133 74.6001 65.6133C74.5001 66.3133 73.8001 66.8134 73.1001 66.8134C73.0001 66.8134 72.9001 66.8134 72.9001 66.8134ZM73.7001 60.9134C72.9001 60.8134 72.3001 60.1133 72.3001 59.3133C72.4001 58.5133 73.1001 57.9134 73.9001 57.9134C74.7001 58.0133 75.3001 58.7133 75.3001 59.5133C75.2001 60.3133 74.6001 60.9134 73.8001 60.9134C73.8001 60.9134 73.8001 60.9134 73.7001 60.9134ZM72.6001 53.4134C72.6001 52.6134 73.3001 51.9134 74.1001 51.9134C74.9001 51.9134 75.6001 52.6134 75.6001 53.4134C75.6001 54.2133 74.9001 54.9134 74.1001 54.9134C73.3001 54.9134 72.6001 54.2133 72.6001 53.4134ZM72.3001 47.5133C72.2001 46.7133 72.8001 46.0133 73.7001 45.9134C74.5001 45.8134 75.2001 46.4133 75.3001 47.3133C75.4001 48.1133 74.8001 48.8134 73.9001 48.9134H73.8001C73.1001 48.9134 72.4001 48.3133 72.3001 47.5133ZM71.6001 41.7133C71.5001 40.9134 72.0001 40.1133 72.8001 40.0133C73.6001 39.9134 74.4001 40.4134 74.5001 41.2133C74.6001 42.0133 74.1001 42.8134 73.3001 42.9134C73.2001 42.9134 73.1001 42.9134 73.1001 42.9134C72.3001 43.0133 71.7001 42.5133 71.6001 41.7133ZM70.3001 36.0133C70.1001 35.2133 70.6001 34.4134 71.4001 34.2133C72.2001 34.0133 73.0001 34.5133 73.2001 35.3133C73.4001 36.1133 72.9001 36.9133 72.1001 37.1133C72.0001 37.1133 71.8001 37.1133 71.7001 37.1133C71.1001 37.1133 70.5001 36.7133 70.3001 36.0133ZM68.6001 30.4133C68.3001 29.6133 68.7001 28.8133 69.5001 28.5133C70.3001 28.2133 71.1001 28.6133 71.4001 29.4133C71.7001 30.2133 71.3001 31.0133 70.5001 31.3133C70.3001 31.4133 70.2001 31.4133 70.0001 31.4133C69.4001 31.4133 68.8001 31.0133 68.6001 30.4133ZM66.4001 24.9133C66.1001 24.1133 66.4001 23.3133 67.2001 22.9133C68.0001 22.6133 68.8001 22.9133 69.2001 23.7133C69.5001 24.5133 69.2001 25.3134 68.4001 25.7133C68.2001 25.8134 68.0001 25.8133 67.8001 25.8133C67.2001 25.8133 66.7001 25.5133 66.4001 24.9133ZM63.8001 19.7133C63.4001 19.0134 63.7001 18.1133 64.4001 17.7133C65.1001 17.3134 66.0001 17.6133 66.4001 18.3133C66.8001 19.0133 66.5001 19.9133 65.8001 20.3133C65.6001 20.4133 65.3001 20.5133 65.1001 20.5133C64.6001 20.4133 64.1001 20.2133 63.8001 19.7133ZM60.7001 14.7133C60.2001 14.0133 60.4001 13.1133 61.1001 12.6133C61.8001 12.1133 62.7001 12.3133 63.2001 13.0133C63.7001 13.7133 63.5001 14.6133 62.8001 15.1133C62.5001 15.3133 62.2001 15.4133 62.0001 15.4133C61.5001 15.3133 61.0001 15.1133 60.7001 14.7133ZM57.2001 10.0133C56.7001 9.31335 56.8001 8.41335 57.4001 7.91335C58.1001 7.41335 59.0001 7.51335 59.5001 8.11335C60.0001 8.71335 59.9001 9.71335 59.3001 10.2133C59.0001 10.4133 58.7001 10.5133 58.4001 10.5133C58.0001 10.5133 57.5001 10.3133 57.2001 10.0133Z" fill="black"/>
<path d="M32.3998 74.7133C31.6998 74.2133 31.4998 73.3134 31.9998 72.6133C32.4998 71.9133 33.3998 71.7133 34.0998 72.2133C34.7998 72.7133 34.9998 73.6134 34.4998 74.3134C34.1998 74.7134 33.6998 75.0134 33.1998 75.0134C32.9998 74.9134 32.6998 74.8133 32.3998 74.7133ZM35.4998 69.5134C34.6998 69.2134 34.3998 68.3134 34.6998 67.5134C34.9998 66.7134 35.8998 66.4133 36.6998 66.7133C37.4998 67.0133 37.7998 67.9133 37.4998 68.7133C37.2998 69.3133 36.6998 69.6133 36.0998 69.6133C35.8998 69.6133 35.6998 69.6133 35.4998 69.5134ZM37.6998 63.9134C36.8998 63.7134 36.3998 62.9133 36.5998 62.1133C36.7998 61.3134 37.5998 60.8134 38.3998 61.0134C39.1998 61.2134 39.6998 62.0134 39.4998 62.8134C39.2998 63.5134 38.6998 64.0134 37.9998 64.0134C37.8998 64.0134 37.7998 64.0134 37.6998 63.9134ZM38.8998 58.0133C38.0998 57.9133 37.4998 57.2134 37.4998 56.4134C37.5998 55.6134 38.2998 55.0133 39.0998 55.0133C39.8998 55.1133 40.4998 55.8133 40.4998 56.6133C40.3998 57.4133 39.7998 58.0133 38.9998 58.0133C38.9998 58.1133 38.8998 58.1133 38.8998 58.0133ZM37.4998 50.7134C37.3998 49.9134 37.9998 49.2133 38.8998 49.1133C39.6998 49.0133 40.4998 49.7134 40.4998 50.5133C40.5998 51.3133 39.9998 52.0133 39.0998 52.1133H38.9998C38.1998 52.1133 37.5998 51.5133 37.4998 50.7134ZM36.5998 45.0133C36.3998 44.2134 36.8998 43.4134 37.6998 43.2134C38.4998 43.0134 39.2998 43.5133 39.4998 44.3133C39.6998 45.1133 39.1998 45.9133 38.3998 46.1133C38.2998 46.1133 38.1998 46.1133 37.9998 46.1133C37.3998 46.1133 36.6998 45.7134 36.5998 45.0133ZM34.6998 39.6133C34.3998 38.8133 34.6998 38.0133 35.4998 37.6133C36.2998 37.3133 37.0998 37.6134 37.4998 38.4134C37.7998 39.2134 37.4998 40.0134 36.6998 40.4134C36.4998 40.5134 36.2998 40.5133 36.0998 40.5133C35.4998 40.5133 34.9998 40.1133 34.6998 39.6133ZM31.9998 34.5133C31.5998 33.8133 31.7998 32.9134 32.3998 32.4134C33.0998 31.9134 33.9998 32.2134 34.4998 32.9134C34.9998 33.6134 34.6998 34.5133 33.9998 35.0133C33.7998 35.2133 33.4998 35.2134 33.1998 35.2134C32.7998 35.2134 32.2998 35.0133 31.9998 34.5133ZM28.4998 30.0133C27.8998 29.4133 27.9998 28.4133 28.5998 27.9133C29.1998 27.3133 30.1998 27.4133 30.6998 28.0133C31.2998 28.6133 31.1998 29.6133 30.5998 30.1133C30.2998 30.4133 29.8998 30.5133 29.5998 30.5133C29.1998 30.5133 28.7998 30.3133 28.4998 30.0133Z" fill="black"/>
<path d="M27.2002 71.9133C26.5002 71.4133 26.3002 70.5134 26.8002 69.8134C27.3002 69.1133 28.2002 68.9133 28.9002 69.4133C29.6002 69.9133 29.8002 70.8133 29.3002 71.5133C29.0002 71.9133 28.5002 72.2133 28.1002 72.2133C27.8002 72.2133 27.5002 72.1133 27.2002 71.9133ZM30.3002 66.8133C29.5002 66.5133 29.2002 65.6133 29.5002 64.8133C29.8002 64.0133 30.7002 63.7133 31.5002 64.0133C32.3002 64.3133 32.6002 65.2133 32.3002 66.0133C32.1002 66.6133 31.5002 66.9133 30.9002 66.9133C30.7002 66.9133 30.5002 66.9133 30.3002 66.8133ZM32.4002 61.2133C31.6002 61.0133 31.1002 60.2133 31.2002 59.4133C31.4002 58.6133 32.2002 58.1133 33.0002 58.2133C33.8002 58.4133 34.3002 59.2133 34.2002 60.0133C34.1002 60.7133 33.4002 61.2133 32.7002 61.2133C32.6002 61.2133 32.5002 61.2133 32.4002 61.2133ZM33.3002 55.2133C32.5002 55.2133 31.8002 54.5133 31.8002 53.7133C31.8002 52.9133 32.5002 52.2133 33.3002 52.2133C34.1002 52.2133 34.8002 52.9133 34.8002 53.7133C34.8002 54.6133 34.1002 55.2133 33.3002 55.2133ZM31.3002 48.1133C31.1002 47.3133 31.7002 46.5133 32.5002 46.3133C33.3002 46.2133 34.1002 46.7133 34.3002 47.5133C34.5002 48.3133 33.9002 49.1133 33.1002 49.3133C33.0002 49.3133 32.9002 49.3133 32.8002 49.3133C32.1002 49.3133 31.4002 48.8133 31.3002 48.1133ZM29.7002 42.6133C29.4002 41.8133 29.8002 41.0133 30.5002 40.6133C31.3002 40.3133 32.1002 40.7133 32.5002 41.4133C32.8002 42.2133 32.4002 43.0133 31.7002 43.4133C31.5002 43.5133 31.3002 43.5133 31.1002 43.5133C30.5002 43.5133 29.9002 43.2133 29.7002 42.6133ZM27.1002 37.5133C26.6002 36.8133 26.9002 35.9133 27.5002 35.4133C28.2002 34.9133 29.1002 35.1133 29.6002 35.8133C30.1002 36.5133 29.8002 37.4133 29.2002 37.9133C29.0002 38.1133 28.7002 38.1133 28.4002 38.1133C27.8002 38.2133 27.4002 38.0133 27.1002 37.5133Z" fill="black"/>
<path d="M23.3002 66.9133C22.6002 66.5133 22.3002 65.6133 22.7002 64.9133C23.1002 64.2133 24.0002 63.9134 24.7002 64.3134C25.4002 64.7134 25.7002 65.6133 25.3002 66.3134C25.0002 66.8134 24.5002 67.1133 24.0002 67.1133C23.8002 67.1133 23.5002 67.0133 23.3002 66.9133ZM25.9002 61.5133C25.1002 61.3133 24.6002 60.5133 24.9002 59.7133C25.1002 58.9133 25.9002 58.4133 26.7002 58.7133C27.5002 58.9133 28.0002 59.7133 27.7002 60.5133C27.5002 61.2133 26.9002 61.6133 26.3002 61.6133C26.2002 61.5133 26.0002 61.5133 25.9002 61.5133ZM27.1002 55.6133C26.3002 55.6133 25.6002 54.9133 25.6002 54.1133C25.6002 53.3133 26.3002 52.6133 27.1002 52.6133C27.9002 52.6133 28.6002 53.3133 28.6002 54.1133C28.6002 55.0133 28.0002 55.6133 27.1002 55.6133ZM25.1002 48.5133C24.9002 47.7133 25.4002 46.9133 26.2002 46.7133C27.0002 46.5133 27.8002 47.0133 28.0002 47.8133C28.2002 48.6133 27.7002 49.4133 26.9002 49.6133C26.8002 49.6133 26.7002 49.6133 26.6002 49.6133C25.9002 49.7133 25.3002 49.2133 25.1002 48.5133ZM23.2002 43.2133C22.8002 42.5133 23.1002 41.6133 23.9002 41.2133C24.6002 40.8133 25.5002 41.1133 25.9002 41.9133C26.3002 42.6133 26.0002 43.5133 25.2002 43.9133C25.0002 44.0133 24.8002 44.0133 24.6002 44.0133C24.0002 44.0133 23.5002 43.7133 23.2002 43.2133ZM20.1002 38.5133C19.6002 37.9133 19.6002 36.9133 20.3002 36.4133C20.9002 35.9133 21.9002 35.9133 22.4002 36.6133C22.9002 37.2133 22.9002 38.2133 22.2002 38.7133C21.9002 38.9133 21.6002 39.1133 21.2002 39.1133C20.8002 39.0133 20.4002 38.8133 20.1002 38.5133Z" fill="black"/>
<path d="M18.1 64.0133C17.4 63.6133 17.1 62.7133 17.5 62.0133C17.9 61.3133 18.8 61.0133 19.5 61.4133C20.2 61.8133 20.5 62.7133 20.1 63.4133C19.8 63.9133 19.3 64.2133 18.8 64.2133C18.6 64.2133 18.3 64.1133 18.1 64.0133ZM14.1 68.0133C13.4 67.6133 13.1 66.7133 13.5 66.0133C13.9 65.3133 14.8 65.0133 15.5 65.4133C16.2 65.8133 16.5 66.7133 16.1 67.4133C15.8 67.9133 15.3 68.2133 14.8 68.2133C14.6 68.2133 14.3 68.1133 14.1 68.0133ZM20.6 58.5133C19.8 58.3133 19.2 57.6133 19.4 56.7133C19.6 55.9133 20.3 55.4133 21.2 55.5133C22 55.7133 22.5 56.4133 22.4 57.3133C22.3 58.0133 21.6 58.5133 20.9 58.5133C20.8 58.6133 20.7 58.5133 20.6 58.5133ZM19.6 51.3133C19.5 50.5133 20.1 49.7133 20.9 49.6133C21.7 49.5133 22.5 50.1133 22.6 50.9133C22.7 51.7133 22.1 52.5133 21.3 52.6133C21.2 52.6133 21.2 52.6133 21.1 52.6133C20.3 52.6133 19.7 52.0133 19.6 51.3133ZM18 46.0133C17.6 45.2133 18 44.4133 18.7 44.0133C19.4 43.6133 20.3 44.0133 20.7 44.7133C21.1 45.5133 20.7 46.3133 20 46.7133C19.8 46.8133 19.6 46.8133 19.3 46.8133C18.8 46.9133 18.3 46.5133 18 46.0133Z" fill="black"/>
<path d="M10.1001 62.8133C9.50007 62.2133 9.50007 61.3133 10.0001 60.7133C10.6001 60.1133 11.5001 60.1133 12.1001 60.6133C12.7001 61.2133 12.7001 62.1133 12.2001 62.7133C11.9001 63.0133 11.5001 63.2133 11.1001 63.2133C10.7001 63.2133 10.4001 63.1133 10.1001 62.8133ZM13.6001 58.0133C12.8001 57.8133 12.3001 57.0133 12.5001 56.2133C12.7001 55.4133 13.5001 54.9133 14.3001 55.1133C15.1001 55.3133 15.6001 56.1133 15.4001 56.9133C15.2001 57.6133 14.6001 58.0133 14.0001 58.0133C13.8001 58.0133 13.7001 58.0133 13.6001 58.0133ZM12.5001 50.9133C12.3001 50.1133 12.8001 49.3133 13.6001 49.1133C14.4001 48.9133 15.2001 49.4133 15.4001 50.2133C15.6001 51.0133 15.1001 51.8133 14.3001 52.0133C14.2001 52.0133 14.1001 52.0133 13.9001 52.0133C13.3001 52.1133 12.7001 51.6133 12.5001 50.9133Z" fill="black"/>
<path d="M4.99982 57.7133C4.49982 57.1133 4.59982 56.1133 5.19982 55.6133C5.79982 55.1133 6.79982 55.2133 7.29982 55.8133C7.79982 56.5133 7.69982 57.4133 7.09982 57.9133C6.69982 58.2133 6.29982 58.3133 5.89982 58.2133C5.49982 58.1133 5.19982 57.9133 4.99982 57.7133ZM6.99982 52.5133C6.99982 51.7133 7.59982 51.0133 8.39982 50.9133C9.19982 50.9133 9.89982 51.5133 9.99982 52.3133C9.99982 53.1133 9.39982 53.8133 8.59982 53.9133C8.49982 53.9133 8.39982 53.9133 8.19982 53.9133C7.59982 53.8133 6.99982 53.2133 6.99982 52.5133ZM4.79982 49.7133C4.09982 49.2133 3.89982 48.3133 4.39982 47.6133C4.79982 46.9133 5.79982 46.7133 6.49982 47.2133C7.19982 47.7133 7.39982 48.6133 6.89982 49.3133C6.59982 49.8133 5.99982 50.1133 5.39982 50.0133C5.19982 49.9133 4.99982 49.8133 4.79982 49.7133Z" fill="black"/>
<path d="M0 52.5133C0 51.7133 0.6 51.0133 1.4 50.9133C2.2 50.9133 2.9 51.5133 3 52.3133C3 53.1133 2.4 53.8133 1.6 53.9133C1.5 53.9133 1.4 53.9133 1.2 53.9133C0.6 53.8133 0 53.2133 0 52.5133Z" fill="black"/>
<path d="M34.8001 87.4134C34.2001 86.8134 34.2001 85.9134 34.8001 85.3134C35.4001 84.7134 36.3001 84.7134 36.9001 85.3134C37.5001 85.9134 37.5001 86.8134 36.9001 87.4134C36.6001 87.7134 36.2001 87.8134 35.9001 87.8134C35.5001 87.8134 35.1001 87.7134 34.8001 87.4134Z" fill="black"/>
<path d="M23.2 75.4134C22.6 74.8134 22.6 73.9134 23.2 73.3134C23.8 72.7134 24.7 72.7134 25.3 73.3134C25.9 73.9134 25.9 74.8134 25.3 75.4134C25 75.7134 24.6 75.8134 24.2 75.8134C23.9 75.8134 23.5 75.7134 23.2 75.4134Z" fill="black"/>
<path d="M18.5 71.5133C17.9 70.9133 17.9 70.0133 18.4 69.4133C19 68.8133 19.9 68.8134 20.5 69.3134C21.1 69.9134 21.1 70.8133 20.6 71.4133C20.3 71.7133 19.9 71.9133 19.5 71.9133C19.1 71.9133 18.8 71.8133 18.5 71.5133Z" fill="black"/>
<path d="M27.5998 80.3134C26.9998 79.7134 26.8998 78.8133 27.4998 78.2133C28.0998 77.6133 28.9998 77.5133 29.5998 78.1133C30.1998 78.7133 30.2998 79.6133 29.6998 80.2133C29.3998 80.5133 28.9998 80.7133 28.5998 80.7133C28.1998 80.6133 27.7998 80.5134 27.5998 80.3134Z" fill="black"/>
<path d="M31.4001 84.2134C30.7001 83.7134 30.6001 82.8134 31.1001 82.1134C31.6001 81.4134 32.5001 81.3134 33.2001 81.8134C33.9001 82.3134 34.0001 83.2134 33.5001 83.9134C33.2001 84.3134 32.8001 84.5134 32.3001 84.5134C32.0001 84.5134 31.7001 84.5134 31.4001 84.2134Z" fill="black"/>
<path d="M38.9 92.4134C38.3 91.9134 38.2 90.9134 38.7 90.3134C39.3 89.7134 40.2 89.6133 40.8 90.2133C41.4 90.7133 41.5 91.7134 41 92.3134C40.7 92.7134 40.3 92.8134 39.9 92.8134C39.5 92.7134 39.1 92.6134 38.9 92.4134Z" fill="black"/>
<path d="M8.99979 45.4133C8.39979 44.8133 8.49979 43.8133 9.09979 43.3133C9.69979 42.7133 10.6998 42.8133 11.1998 43.4133C11.7998 44.0133 11.6998 45.0133 11.0998 45.5133C10.7998 45.8133 10.4998 45.9133 10.0998 45.9133C9.69979 45.9133 9.29979 45.7133 8.99979 45.4133Z" fill="black"/>
<path d="M13.9002 40.5133C13.3002 39.9133 13.4002 38.9133 13.9002 38.4133C14.5002 37.8133 15.4002 37.8133 16.0002 38.4133C16.6002 39.0133 16.5002 39.9133 16.0002 40.5133C15.7002 40.8133 15.3002 40.9133 15.0002 40.9133C14.6002 41.0133 14.2002 40.8133 13.9002 40.5133Z" fill="black"/>
<path d="M22.4998 32.1133C21.8998 31.5133 21.8998 30.6133 22.4998 30.0133C23.0998 29.4133 23.9998 29.4133 24.5998 30.0133C25.1998 30.6133 25.1998 31.5133 24.5998 32.1133C24.2998 32.4133 23.8998 32.5133 23.5998 32.5133C23.1998 32.5133 22.7998 32.4133 22.4998 32.1133Z" fill="black"/>
<path d="M30.9002 24.1133C30.3002 23.5133 30.3002 22.6133 30.9002 22.0133C31.5002 21.4133 32.4002 21.4133 33.0002 22.0133C33.6002 22.6133 33.6002 23.5133 33.0002 24.1133C32.7002 24.4133 32.3002 24.5133 31.9002 24.5133C31.6002 24.6133 31.2002 24.4133 30.9002 24.1133Z" fill="black"/>
<path d="M38.1999 16.2133C37.5999 15.6133 37.5999 14.7133 38.2999 14.1133C38.8999 13.5133 39.7999 13.6133 40.3999 14.2133C40.9999 14.8133 40.8999 15.8133 40.2999 16.3133C39.9999 16.6133 39.6999 16.7133 39.2999 16.7133C38.8999 16.6133 38.4999 16.5133 38.1999 16.2133Z" fill="black"/>
<path d="M47.3001 7.41335C46.7001 6.81335 46.7001 5.91335 47.3001 5.31335C47.9001 4.71335 48.8001 4.71335 49.4001 5.31335C50.0001 5.91335 50.0001 6.91335 49.4001 7.41335C49.1001 7.71335 48.7001 7.81335 48.3001 7.81335C48.0001 7.81335 47.6001 7.71335 47.3001 7.41335Z" fill="black"/>
<path d="M51.4002 2.51335C50.8002 1.91335 50.9002 0.913349 51.5002 0.413349C52.1002 -0.186651 53.1002 -0.0866512 53.6002 0.413349C54.2002 1.01335 54.1002 1.91335 53.5002 2.51335C53.2002 2.81335 52.8002 2.91335 52.5002 2.91335C52.0002 3.01335 51.7002 2.81335 51.4002 2.51335Z" fill="black"/>
</svg>
