<svg xmlns="http://www.w3.org/2000/svg" width="60" height="82" fill="none"><path fill="#fff" d="M36.1 40.4c-.6-2-2-3.9-4-5a8 8 0 0 0-6-.6A8.3 8.3 0 0 0 20.5 45c3 10.7 13.7 20.4 23.6 28.5a1.4 1.4 0 0 0 2-.2c.4-.6.3-1.5-.2-2-9.7-7.7-20-17-22.7-27-.9-3 .8-6 3.6-6.9a5.5 5.5 0 0 1 6.6 3.8c2 6.5 11.3 15.2 19 21.4.5.4 1.4.3 1.8-.2.5-.6.4-1.5-.2-2-10.2-8.3-16.6-15.4-17.9-20z"/><path fill="#fff" d="M49 36.3a21.6 21.6 0 0 0-26.6-14.6A21.5 21.5 0 0 0 9.5 32.2c-2.8 5.3-3.5 11-2 16.6C10 57.5 4.4 61.8 1 63a1.4 1.4 0 0 0 .8 2.6c5.9-1.8 11-8.1 8.4-17.4-1.4-5-.8-10 1.7-14.5 2.4-4.6 6.4-7.8 11.3-9.3a18.9 18.9 0 0 1 23.3 13.3c.2.2.5.9 11.3 10a1.4 1.4 0 0 0 1.7-2.2L49 36.3z"/><path fill="#fff" d="M42.6 38.5a15 15 0 0 0-7.2-9c-3.4-2-7.4-2.4-11.2-1.3-7.6 2.2-12 10.2-10.2 18.6 3.5 16-.3 20.6-7.6 23a1.4 1.4 0 0 0 .4 2.6h.4c10-3.2 12.8-10.8 9.5-26.2-1.5-7 2-13.6 8.3-15.4 3-1 6.3-.6 9 1 3 1.6 5 4.3 6 7.5.7 2.7 2.5 6.3 15 16.4.6.5 1.5.4 2-.2.4-.6.3-1.4-.2-1.9-13-10.4-13.7-13.3-14.2-15z"/><path fill="#fff" d="M47.5 62.8c-5.8-4.5-15.5-12-17.9-20.4a1.4 1.4 0 1 0-2.6.7c2.6 9.3 12.8 17.2 18.9 21.9 1.6 1.2 3 2.3 3.6 3a1.4 1.4 0 0 0 2 0c.4-.6.5-1.4 0-2-.8-.8-2.2-1.8-4-3.2zM39.2 75.2c-2-2.7-5.1-6.9-9.2-6.9-1 0-2 .5-2.8 1.3-2.8 2.9-2.7 10.2-2.7 11 0 .8.7 1.4 1.4 1.4.8 0 1.4-.7 1.4-1.4-.1-2.7.3-7.6 1.8-9.1.4-.4.7-.4.9-.4 2.7 0 5.3 3.4 7 5.7.6.9 1.1 1.6 1.6 2a1.4 1.4 0 1 0 2-1.9c-.5-.3-1-1-1.4-1.7zM20 57.5c-.7.2-1 1-.8 1.7 1.4 4.5-1.5 15.9-6 17.4a1.4 1.4 0 0 0 .9 2.6c6.2-2 9.5-15 7.7-20.8-.3-.8-1-1.2-1.8-1z"/><path fill="#fff" d="M1.4 44c.7 0 1.3-.6 1.3-1.4a26 26 0 0 1 25.6-26.2c13.9 0 18.7 7.8 22.6 14 2.2 3.7 4.2 6.8 7.3 7.8.7.2 1.5-.1 1.7-.9.3-.7-.1-1.5-.8-1.7-2.3-.7-4-3.4-5.9-6.6-4-6.5-9.5-15.3-24.9-15.3C12.7 13.7 0 26.7 0 42.6c0 .8.6 1.4 1.4 1.4zM2.7 56A1.4 1.4 0 0 0 4 54a9 9 0 0 1-1.2-3.4 1.4 1.4 0 1 0-2.7 0c0 2 1.4 4.5 1.5 4.7.3.5.8.7 1.2.7z"/><path fill="#fff" d="M2.3 18.3c.6.4 1.5.2 1.8-.4 1.5-2.5 8.8-9.7 22.5-9.7 13 0 22.4 6.8 24 9.7a1.4 1.4 0 0 0 2 .4c.6-.3.8-1.2.4-1.8-2.3-3.9-12.4-11-26.4-11-15 0-23 8-24.8 11-.4.6-.2 1.5.5 1.8z"/><path fill="#fff" d="M12 6c.8-.3 1.5-.6 2-1 2.6-1.3 4.5-2.3 12.6-2.3 9.2 0 12.6 1.3 16.1 2.7l2 .7h.5a1.4 1.4 0 0 0 .4-2.6l-1.9-.7a40.5 40.5 0 0 0-17-2.8c-8.9 0-11.1 1.2-13.9 2.6l-1.9 1A1.4 1.4 0 0 0 12 6zM57.3 29.1a1.4 1.4 0 1 0 2.6-.8c-.9-2.8-3.4-6.8-3.5-7a1.4 1.4 0 1 0-2.3 1.5s2.5 3.8 3.2 6.3z"/></svg>