<svg width="75" height="75" viewBox="0 0 75 75" fill="none" xmlns="http://www.w3.org/2000/svg">
<path d="M72 73.5C72 72.7 72.7 72 73.5 72C74.3 72 75 72.7 75 73.5C75 74.3 74.3 75 73.5 75C72.7 75 72 74.3 72 73.5ZM66 73.5C66 72.7 66.7 72 67.5 72C68.3 72 69 72.7 69 73.5C69 74.3 68.3 75 67.5 75C66.7 75 66 74.3 66 73.5ZM60 73.5C60 72.7 60.7 72 61.5 72C62.3 72 63 72.7 63 73.5C63 74.3 62.3 75 61.5 75C60.7 75 60 74.3 60 73.5ZM54 73.5C54 72.7 54.7 72 55.5 72C56.3 72 57 72.7 57 73.5C57 74.3 56.3 75 55.5 75C54.7 75 54 74.3 54 73.5ZM48 73.5C48 72.7 48.7 72 49.5 72C50.3 72 51 72.7 51 73.5C51 74.3 50.3 75 49.5 75C48.7 75 48 74.3 48 73.5ZM42 73.5C42 72.7 42.7 72 43.5 72C44.3 72 45 72.7 45 73.5C45 74.3 44.3 75 43.5 75C42.7 75 42 74.3 42 73.5ZM36 73.5C36 72.7 36.7 72 37.5 72C38.3 72 39 72.7 39 73.5C39 74.3 38.3 75 37.5 75C36.7 75 36 74.3 36 73.5ZM30 73.5C30 72.7 30.7 72 31.5 72C32.3 72 33 72.7 33 73.5C33 74.3 32.3 75 31.5 75C30.7 75 30 74.3 30 73.5ZM24 73.5C24 72.7 24.7 72 25.5 72C26.3 72 27 72.7 27 73.5C27 74.3 26.3 75 25.5 75C24.7 75 24 74.3 24 73.5ZM18 73.5C18 72.7 18.7 72 19.5 72C20.3 72 21 72.7 21 73.5C21 74.3 20.3 75 19.5 75C18.7 75 18 74.3 18 73.5ZM12 73.5C12 72.7 12.7 72 13.5 72C14.3 72 15 72.7 15 73.5C15 74.3 14.3 75 13.5 75C12.7 75 12 74.3 12 73.5ZM6 73.5C6 72.7 6.7 72 7.5 72C8.3 72 9 72.7 9 73.5C9 74.3 8.3 75 7.5 75C6.7 75 6 74.3 6 73.5ZM0 73.5C0 72.7 0.7 72 1.5 72C2.3 72 3 72.7 3 73.5C3 74.3 2.3 75 1.5 75C0.7 75 0 74.3 0 73.5ZM0 67.5C0 66.7 0.7 66 1.5 66C2.3 66 3 66.7 3 67.5C3 68.3 2.3 69 1.5 69C0.7 69 0 68.3 0 67.5ZM72 67.5C72 66.7 72.7 66 73.5 66C74.3 66 75 66.7 75 67.5C75 68.3 74.3 69 73.5 69C72.7 69 72 68.3 72 67.5ZM0 61.5C0 60.7 0.7 60 1.5 60C2.3 60 3 60.7 3 61.5C3 62.3 2.3 63 1.5 63C0.7 63 0 62.3 0 61.5ZM72 61.5C72 60.7 72.7 60 73.5 60C74.3 60 75 60.7 75 61.5C75 62.3 74.3 63 73.5 63C72.7 63 72 62.3 72 61.5ZM0 55.5C0 54.7 0.7 54 1.5 54C2.3 54 3 54.7 3 55.5C3 56.3 2.3 57 1.5 57C0.7 57 0 56.3 0 55.5ZM72 55.5C72 54.7 72.7 54 73.5 54C74.3 54 75 54.7 75 55.5C75 56.3 74.3 57 73.5 57C72.7 57 72 56.3 72 55.5ZM0 49.5C0 48.7 0.7 48 1.5 48C2.3 48 3 48.7 3 49.5C3 50.3 2.3 51 1.5 51C0.7 51 0 50.3 0 49.5ZM72 49.5C72 48.7 72.7 48 73.5 48C74.3 48 75 48.7 75 49.5C75 50.3 74.3 51 73.5 51C72.7 51 72 50.3 72 49.5ZM0 43.5C0 42.7 0.7 42 1.5 42C2.3 42 3 42.7 3 43.5C3 44.3 2.3 45 1.5 45C0.7 45 0 44.3 0 43.5ZM72 43.5C72 42.7 72.7 42 73.5 42C74.3 42 75 42.7 75 43.5C75 44.3 74.3 45 73.5 45C72.7 45 72 44.3 72 43.5ZM0 37.5C0 36.7 0.7 36 1.5 36C2.3 36 3 36.7 3 37.5C3 38.3 2.3 39 1.5 39C0.7 39 0 38.3 0 37.5ZM72 37.5C72 36.7 72.7 36 73.5 36C74.3 36 75 36.7 75 37.5C75 38.3 74.3 39 73.5 39C72.7 39 72 38.3 72 37.5ZM0 31.5C0 30.7 0.7 30 1.5 30C2.3 30 3 30.7 3 31.5C3 32.3 2.3 33 1.5 33C0.7 33 0 32.3 0 31.5ZM72 31.5C72 30.7 72.7 30 73.5 30C74.3 30 75 30.7 75 31.5C75 32.3 74.3 33 73.5 33C72.7 33 72 32.3 72 31.5ZM0 25.5C0 24.7 0.7 24 1.5 24C2.3 24 3 24.7 3 25.5C3 26.3 2.3 27 1.5 27C0.7 27 0 26.3 0 25.5ZM72 25.5C72 24.7 72.7 24 73.5 24C74.3 24 75 24.7 75 25.5C75 26.3 74.3 27 73.5 27C72.7 27 72 26.3 72 25.5ZM0 19.5C0 18.7 0.7 18 1.5 18C2.3 18 3 18.7 3 19.5C3 20.3 2.3 21 1.5 21C0.7 21 0 20.3 0 19.5ZM72 19.5C72 18.7 72.7 18 73.5 18C74.3 18 75 18.7 75 19.5C75 20.3 74.3 21 73.5 21C72.7 21 72 20.3 72 19.5ZM0 13.5C0 12.7 0.7 12 1.5 12C2.3 12 3 12.7 3 13.5C3 14.3 2.3 15 1.5 15C0.7 15 0 14.3 0 13.5ZM72 13.5C72 12.7 72.7 12 73.5 12C74.3 12 75 12.7 75 13.5C75 14.3 74.3 15 73.5 15C72.7 15 72 14.3 72 13.5ZM0 7.5C0 6.7 0.7 6 1.5 6C2.3 6 3 6.7 3 7.5C3 8.3 2.3 9 1.5 9C0.7 9 0 8.3 0 7.5ZM72 7.5C72 6.7 72.7 6 73.5 6C74.3 6 75 6.7 75 7.5C75 8.3 74.3 9 73.5 9C72.7 9 72 8.3 72 7.5ZM72 1.5C72 0.7 72.7 0 73.5 0C74.3 0 75 0.7 75 1.5C75 2.3 74.3 3 73.5 3C72.7 3 72 2.3 72 1.5ZM66 1.5C66 0.7 66.7 0 67.5 0C68.3 0 69 0.7 69 1.5C69 2.3 68.3 3 67.5 3C66.7 3 66 2.3 66 1.5ZM60 1.5C60 0.7 60.7 0 61.5 0C62.3 0 63 0.7 63 1.5C63 2.3 62.3 3 61.5 3C60.7 3 60 2.3 60 1.5ZM54 1.5C54 0.7 54.7 0 55.5 0C56.3 0 57 0.7 57 1.5C57 2.3 56.3 3 55.5 3C54.7 3 54 2.3 54 1.5ZM48 1.5C48 0.7 48.7 0 49.5 0C50.3 0 51 0.7 51 1.5C51 2.3 50.3 3 49.5 3C48.7 3 48 2.3 48 1.5ZM42 1.5C42 0.7 42.7 0 43.5 0C44.3 0 45 0.7 45 1.5C45 2.3 44.3 3 43.5 3C42.7 3 42 2.3 42 1.5ZM36 1.5C36 0.7 36.7 0 37.5 0C38.3 0 39 0.7 39 1.5C39 2.3 38.3 3 37.5 3C36.7 3 36 2.3 36 1.5ZM30 1.5C30 0.7 30.7 0 31.5 0C32.3 0 33 0.7 33 1.5C33 2.3 32.3 3 31.5 3C30.7 3 30 2.3 30 1.5ZM24 1.5C24 0.7 24.7 0 25.5 0C26.3 0 27 0.7 27 1.5C27 2.3 26.3 3 25.5 3C24.7 3 24 2.3 24 1.5ZM18 1.5C18 0.7 18.7 0 19.5 0C20.3 0 21 0.7 21 1.5C21 2.3 20.3 3 19.5 3C18.7 3 18 2.3 18 1.5ZM12 1.5C12 0.7 12.7 0 13.5 0C14.3 0 15 0.7 15 1.5C15 2.3 14.3 3 13.5 3C12.7 3 12 2.3 12 1.5ZM6 1.5C6 0.7 6.7 0 7.5 0C8.3 0 9 0.7 9 1.5C9 2.3 8.3 3 7.5 3C6.7 3 6 2.3 6 1.5ZM0 1.5C0 0.7 0.7 0 1.5 0C2.3 0 3 0.7 3 1.5C3 2.3 2.3 3 1.5 3C0.7 3 0 2.3 0 1.5Z" fill="black"/>
</svg>
