<svg width="77" height="77" viewBox="0 0 77 77" fill="none" xmlns="http://www.w3.org/2000/svg">
<path d="M39 75.5C39 74.7 39.6 74 40.4 73.9C41.2 73.9 41.9 74.5 42 75.3C42.1 76.1 41.4 76.8 40.6 76.9H40.5C39.8 76.9 39.1 76.3 39 75.5ZM33.4 76.7C32.6 76.6 32 75.8 32.1 75C32.2 74.2 33 73.6 33.8 73.7C34.6 73.8 35.2 74.6 35.1 75.4C35 76.2 34.3 76.7 33.6 76.7C33.5 76.7 33.4 76.7 33.4 76.7ZM46 74.8C45.8 74 46.3 73.2 47.1 73C47.9 72.8 48.7 73.3 48.9 74.1C49.1 74.9 48.6 75.7 47.8 75.9C47.7 75.9 47.6 75.9 47.4 75.9C46.8 75.9 46.2 75.4 46 74.8ZM26.3 75C25.5 74.7 25.1 73.9 25.4 73.1C25.7 72.3 26.5 71.9 27.3 72.2C28.1 72.5 28.5 73.3 28.3 74.1C28.1 74.7 27.5 75.1 26.9 75.1C26.6 75.1 26.4 75.1 26.3 75ZM52.7 72.7C52.3 71.9 52.7 71.1 53.4 70.7C54.2 70.3 55 70.7 55.4 71.4C55.8 72.2 55.4 73 54.7 73.4C54.5 73.5 54.3 73.6 54.1 73.6C53.5 73.5 52.9 73.2 52.7 72.7ZM19.6 72.1C18.9 71.7 18.6 70.8 19 70.1C19.4 69.4 20.3 69.1 21.1 69.5C21.8 69.9 22.1 70.8 21.7 71.5C21.4 72 20.9 72.3 20.4 72.3C20.1 72.3 19.9 72.3 19.6 72.1ZM58.8 69.4C58.3 68.7 58.5 67.8 59.1 67.3C59.8 66.8 60.7 67 61.2 67.6C61.7 68.3 61.5 69.2 60.9 69.7C60.6 69.9 60.3 70 60 70C59.6 70 59.1 69.8 58.8 69.4ZM13.6 68C13 67.5 12.9 66.5 13.4 65.9C13.9 65.3 14.9 65.2 15.5 65.7C16.1 66.2 16.2 67.2 15.7 67.8C15.4 68.1 15 68.3 14.6 68.3C14.3 68.3 13.9 68.2 13.6 68ZM64.3 65C63.7 64.4 63.7 63.5 64.2 62.9C64.8 62.3 65.7 62.3 66.3 62.8C66.9 63.4 66.9 64.3 66.4 64.9C66.1 65.2 65.7 65.4 65.3 65.4C64.9 65.4 64.6 65.3 64.3 65ZM8.5 62.8C8 62.2 8.1 61.2 8.7 60.7C9.4 60.2 10.3 60.3 10.8 60.9C11.3 61.5 11.2 62.5 10.6 63C10.3 63.2 10 63.3 9.6 63.3C9.3 63.3 8.8 63.2 8.5 62.8ZM68.8 59.6C68.1 59.2 67.9 58.2 68.3 57.5C68.7 56.8 69.7 56.6 70.4 57C71.1 57.4 71.3 58.4 70.9 59.1C70.6 59.6 70.1 59.8 69.6 59.8C69.3 59.9 69.1 59.8 68.8 59.6ZM4.5 56.8C4.1 56.1 4.4 55.2 5.1 54.8C5.8 54.4 6.7 54.7 7.1 55.4C7.5 56.1 7.2 57 6.5 57.4C6.3 57.5 6 57.6 5.8 57.6C5.3 57.5 4.8 57.3 4.5 56.8ZM72.2 53.6C71.4 53.3 71.1 52.4 71.4 51.6C71.7 50.8 72.6 50.5 73.3 50.8C74.1 51.1 74.4 52 74.1 52.8C73.9 53.4 73.3 53.8 72.7 53.8C72.6 53.7 72.4 53.6 72.2 53.6ZM1.7 50.1C1.5 49.3 1.9 48.5 2.7 48.2C3.5 48 4.3 48.4 4.6 49.2C4.8 50 4.4 50.8 3.6 51.1C3.5 51.1 3.3 51.2 3.1 51.2C2.5 51.1 1.9 50.7 1.7 50.1ZM74.5 46.9C73.7 46.7 73.1 46 73.3 45.1C73.5 44.3 74.2 43.8 75.1 43.9C75.9 44.1 76.4 44.8 76.3 45.7C76.2 46.4 75.5 46.9 74.8 46.9C74.7 47 74.6 47 74.5 46.9ZM0.2 43C0.1 42.2 0.7 41.4 1.5 41.3C2.3 41.2 3.1 41.8 3.2 42.6C3.3 43.4 2.7 44.2 1.9 44.3C1.8 44.3 1.8 44.3 1.7 44.3C0.9 44.3 0.2 43.7 0.2 43ZM73.9 38.5C73.9 38.2 74 38 74.1 37.7C74 37.5 73.9 37.2 73.9 36.9C73.9 36.1 74.5 35.4 75.3 35.3C76.1 35.3 76.8 35.9 76.9 36.7C76.9 37 76.8 37.3 76.7 37.5C76.8 37.7 76.9 38 76.9 38.3C76.9 39.1 76.2 39.8 75.4 39.8C74.6 40 73.9 39.3 73.9 38.5ZM1.4 37.3C0.6 37.2 0 36.5 0 35.7C0.1 34.9 0.8 34.2 1.6 34.3C2.4 34.4 3 35.1 3 35.9C3 36.7 2.3 37.3 1.5 37.3H1.4ZM73 30.3C72.8 29.5 73.3 28.7 74.1 28.5C74.9 28.3 75.7 28.8 75.9 29.6C76.1 30.4 75.6 31.2 74.8 31.4C74.7 31.4 74.6 31.4 74.5 31.4C73.7 31.5 73.1 31 73 30.3ZM2.3 30.3C1.5 30.1 1 29.3 1.2 28.5C1.4 27.7 2.2 27.2 3 27.4C3.8 27.6 4.3 28.4 4.1 29.2C3.9 29.9 3.3 30.3 2.6 30.3C2.5 30.4 2.4 30.4 2.3 30.3ZM70.8 24C70.5 23.2 70.8 22.4 71.6 22C72.4 21.7 73.2 22 73.6 22.8C73.9 23.6 73.6 24.4 72.8 24.8C72.6 24.9 72.4 24.9 72.2 24.9C71.6 24.9 71.1 24.6 70.8 24ZM4.5 23.7C3.7 23.3 3.4 22.4 3.8 21.7C4.1 21 5 20.6 5.8 21C6.5 21.4 6.8 22.3 6.5 23C6.2 23.5 5.7 23.8 5.1 23.8C4.9 23.8 4.7 23.8 4.5 23.7ZM67.5 18.2C67 17.5 67.2 16.6 67.9 16.1C68.6 15.6 69.5 15.8 70 16.5C70.5 17.2 70.3 18.1 69.6 18.6C69.3 18.8 69 18.9 68.7 18.9C68.3 18.8 67.8 18.6 67.5 18.2ZM7.8 17.6C7.1 17.1 7 16.2 7.5 15.5C8 14.8 9 14.7 9.6 15.2C10.3 15.7 10.4 16.6 9.9 17.3C9.6 17.7 9.1 17.9 8.7 17.9C8.4 17.9 8.1 17.8 7.8 17.6ZM63.2 13.1C62.6 12.5 62.6 11.6 63.2 11C63.8 10.4 64.7 10.4 65.3 11C65.9 11.6 65.9 12.5 65.3 13.1C65 13.4 64.6 13.6 64.2 13.6C63.8 13.5 63.5 13.3 63.2 13.1ZM12.3 12.2C11.7 11.6 11.8 10.6 12.4 10.1C13 9.5 14 9.6 14.5 10.2C15.1 10.8 15 11.8 14.4 12.3C14.1 12.6 13.7 12.7 13.4 12.7C13 12.7 12.6 12.5 12.3 12.2ZM57.9 8.8C57.2 8.3 57 7.4 57.5 6.7C58 6 58.9 5.8 59.6 6.3C60.3 6.8 60.5 7.7 60 8.4C59.7 8.8 59.2 9.1 58.7 9.1C58.5 9.1 58.2 9 57.9 8.8ZM17.7 7.8C17.3 7.1 17.5 6.2 18.2 5.7C18.9 5.3 19.8 5.5 20.3 6.2C20.7 6.9 20.5 7.8 19.8 8.3C19.6 8.5 19.3 8.5 19 8.5C18.5 8.5 18 8.2 17.7 7.8ZM52 5.7C51.2 5.4 50.9 4.5 51.2 3.7C51.5 2.9 52.4 2.6 53.2 2.9C54 3.2 54.3 4.1 54 4.9C53.8 5.5 53.2 5.8 52.6 5.8C52.4 5.8 52.2 5.8 52 5.7ZM23.9 4.4C23.6 3.6 24 2.8 24.8 2.5C25.6 2.2 26.4 2.6 26.7 3.4C27 4.1 26.6 5 25.8 5.3C25.6 5.4 25.4 5.4 25.3 5.4C24.7 5.4 24.1 5 23.9 4.4ZM45.6 3.7C44.8 3.5 44.3 2.7 44.4 1.9C44.6 1.1 45.4 0.6 46.2 0.7C47 0.9 47.5 1.7 47.4 2.5C47.3 3.2 46.6 3.7 45.9 3.7C45.8 3.8 45.7 3.8 45.6 3.7ZM30.5 2.3C30.4 1.5 30.9 0.7 31.7 0.6C32.5 0.5 33.3 1 33.4 1.8C33.6 2.6 33 3.4 32.2 3.5C32.1 3.5 32 3.5 32 3.5C31.3 3.5 30.7 3 30.5 2.3ZM39 3C38.2 3 37.5 2.3 37.5 1.5C37.5 0.6 38.2 0 39 0C39.8 0 40.5 0.7 40.5 1.5C40.5 2.3 39.8 3 39 3Z" fill="black"/>
</svg>
