<svg width="258" height="368" viewBox="0 0 258 368" fill="none" xmlns="http://www.w3.org/2000/svg">
<path d="M129 111C112.157 111 95.4795 114.324 79.9237 120.782C64.3678 127.24 50.2394 136.704 38.3483 148.633C26.4572 160.561 17.0372 174.719 10.6283 190.295C4.21947 205.871 0.947718 222.559 1.00063 239.402C1.05354 256.245 4.43008 272.912 10.9367 288.447C17.4433 303.983 26.952 318.082 38.9178 329.935C50.8837 341.789 65.0713 351.164 80.6674 357.524C96.2635 363.884 112.962 367.103 129.804 366.997L129 239V111Z" fill="white" fill-opacity="0.501" stroke="#7A7E80" stroke-linejoin="round"/>
<path d="M129.804 366.997C146.647 366.892 163.303 363.463 178.818 356.907C194.333 350.352 208.402 340.799 220.218 328.796C232.034 316.793 241.364 302.576 247.675 286.96C253.986 271.344 257.153 254.636 256.994 237.794L129 239L129.804 366.997Z" fill="white" fill-opacity="0.2505" stroke="#7A7E80" stroke-linejoin="round"/>
<path d="M256.994 237.791C256.835 220.956 253.357 204.317 246.757 188.828C240.158 173.339 230.568 159.304 218.536 147.527L129 239L256.994 237.791Z" fill="white" fill-opacity="0.1252" stroke="#7A7E80" stroke-linejoin="round"/>
<path d="M218.523 147.515C206.49 135.739 192.252 126.454 176.624 120.19L129 239L218.523 147.515Z" fill="white" fill-opacity="0.0626" stroke="#7A7E80" stroke-linejoin="round"/>
<path d="M176.646 120.198C168.864 117.077 160.795 114.729 152.554 113.186L129 239L176.646 120.198Z" fill="white" fill-opacity="0.0313" stroke="#7A7E80" stroke-linejoin="round"/>
<path d="M152.542 113.184C148.404 112.409 144.23 111.84 140.036 111.477L129 239L152.542 113.184Z" fill="white" fill-opacity="0.0157" stroke="#7A7E80" stroke-linejoin="round"/>
<path d="M140.031 111.476C137.948 111.296 135.861 111.167 133.771 111.089L129 239L140.031 111.476Z" fill="white" fill-opacity="0.01" stroke="#7A7E80" stroke-linejoin="round"/>
<path d="M133.766 111.089C132.721 111.05 131.675 111.024 130.63 111.01L129 239L133.766 111.089Z" fill="white" fill-opacity="0.01" stroke="#7A7E80" stroke-linejoin="round"/>
<path d="M129 111C129.536 111 130.072 111.003 130.608 111.01L129 239V111Z" fill="white" fill-opacity="0.01" stroke="#7A7E80" stroke-linejoin="round"/>
<path d="M53.2864 244.075C53.8114 244.075 54.2464 243.655 54.2464 243.115C54.2464 242.575 53.8114 242.155 53.2864 242.155C52.7614 242.155 52.3264 242.575 52.3264 243.115C52.3264 243.655 52.7614 244.075 53.2864 244.075ZM59.4001 244.135C61.4401 244.135 63.0751 242.755 63.0751 240.49C63.0751 238.3 61.6651 236.935 59.7451 236.935C58.7251 236.935 57.9901 237.265 57.5551 237.67V234.4H62.5051V233.275H56.4751V239.02H56.9551C57.5251 238.375 58.2451 237.985 59.4901 237.985C60.8551 237.985 61.7401 238.975 61.7401 240.49C61.7401 242.11 60.8401 243.085 59.3851 243.085C57.7501 243.085 57.2851 242.275 57.0751 241.105H55.8301C55.9801 242.86 57.0901 244.135 59.4001 244.135ZM66.8838 244H68.1888V233.275H66.9738L64.4838 235.075V236.29L66.8838 234.565V244ZM70.265 244H77.45V242.935H72.275L75.23 240.055C76.55 238.765 77.39 237.475 77.39 236.155C77.39 234.31 76.13 233.14 74.15 233.14C72.11 233.14 70.835 234.475 70.67 236.575H71.885C72.095 234.895 72.905 234.19 74.15 234.19C75.365 234.19 76.07 234.91 76.07 236.11C76.07 237.205 75.5 238.18 74.525 239.215L70.265 243.7V244Z" fill="white"/>
<path d="M169.645 297.075C170.17 297.075 170.605 296.655 170.605 296.115C170.605 295.575 170.17 295.155 169.645 295.155C169.12 295.155 168.685 295.575 168.685 296.115C168.685 296.655 169.12 297.075 169.645 297.075ZM172.049 297H179.234V295.935H174.059L177.014 293.055C178.334 291.765 179.174 290.475 179.174 289.155C179.174 287.31 177.914 286.14 175.934 286.14C173.894 286.14 172.619 287.475 172.454 289.575H173.669C173.879 287.895 174.689 287.19 175.934 287.19C177.149 287.19 177.854 287.91 177.854 289.11C177.854 290.205 177.284 291.18 176.309 292.215L172.049 296.7V297ZM184.284 297.135C186.324 297.135 187.959 295.755 187.959 293.49C187.959 291.3 186.549 289.935 184.629 289.935C183.609 289.935 182.874 290.265 182.439 290.67V287.4H187.389V286.275H181.359V292.02H181.839C182.409 291.375 183.129 290.985 184.374 290.985C185.739 290.985 186.624 291.975 186.624 293.49C186.624 295.11 185.724 296.085 184.269 296.085C182.634 296.085 182.169 295.275 181.959 294.105H180.714C180.864 295.86 181.974 297.135 184.284 297.135ZM193.482 297.135C195.747 297.135 197.187 295.695 197.187 293.55C197.187 291.585 195.807 290.04 193.677 290.04C192.432 290.04 191.427 290.625 190.917 291.495C190.977 288.66 192.117 287.205 193.737 287.205C194.937 287.205 195.477 287.745 195.717 288.735H196.962C196.677 287.01 195.492 286.14 193.827 286.14C191.367 286.14 189.627 288.15 189.627 292.005V292.26C189.627 294.945 190.557 297.135 193.482 297.135ZM193.482 296.115C192.042 296.115 191.007 295.185 191.007 293.43C191.007 292.035 192.027 291.06 193.467 291.06C194.922 291.06 195.852 292.065 195.852 293.61C195.852 295.125 194.892 296.115 193.482 296.115Z" fill="white"/>
<path d="M196.26 211.075C196.785 211.075 197.22 210.655 197.22 210.115C197.22 209.575 196.785 209.155 196.26 209.155C195.735 209.155 195.3 209.575 195.3 210.115C195.3 210.655 195.735 211.075 196.26 211.075ZM200.292 211H201.597V200.275H200.382L197.892 202.075V203.29L200.292 201.565V211ZM203.673 211H210.858V209.935H205.683L208.638 207.055C209.958 205.765 210.798 204.475 210.798 203.155C210.798 201.31 209.538 200.14 207.558 200.14C205.518 200.14 204.243 201.475 204.078 203.575H205.293C205.503 201.895 206.313 201.19 207.558 201.19C208.773 201.19 209.478 201.91 209.478 203.11C209.478 204.205 208.908 205.18 207.933 206.215L203.673 210.7V211ZM216.107 211.135C217.922 211.135 219.797 210.07 219.797 207.925C219.797 206.545 218.987 205.615 217.742 205.165C218.732 204.73 219.392 203.98 219.392 202.9C219.392 201.22 217.772 200.14 216.107 200.14C214.457 200.14 212.807 201.19 212.807 202.93C212.807 203.98 213.407 204.79 214.427 205.18C213.287 205.585 212.402 206.515 212.402 207.955C212.402 210.085 214.352 211.135 216.107 211.135ZM216.107 210.07C214.862 210.07 213.737 209.32 213.737 207.91C213.737 206.485 214.862 205.75 216.137 205.75C217.412 205.75 218.462 206.47 218.462 207.88C218.462 209.305 217.427 210.07 216.107 210.07ZM216.152 204.715C215.057 204.715 214.127 204.07 214.127 202.945C214.127 201.835 214.997 201.16 216.107 201.16C217.217 201.16 218.072 201.88 218.072 202.915C218.072 204.055 217.292 204.715 216.152 204.715Z" fill="white"/>
<path d="M172.834 155.075C173.359 155.075 173.794 154.655 173.794 154.115C173.794 153.575 173.359 153.155 172.834 153.155C172.309 153.155 171.874 153.575 171.874 154.115C171.874 154.655 172.309 155.075 172.834 155.075ZM179.365 154.055C177.58 154.055 176.44 152.645 176.44 149.93V149.33C176.44 146.69 177.52 145.19 179.335 145.19C181.15 145.19 182.2 146.81 182.2 149.3V149.9C182.2 152.615 181.24 154.055 179.365 154.055ZM179.365 155.135C182.005 155.135 183.52 153.035 183.52 149.915V149.315C183.52 146.255 181.975 144.14 179.335 144.14C176.71 144.14 175.105 146.18 175.105 149.345V149.945C175.105 153.065 176.8 155.135 179.365 155.135ZM189.17 155.135C191.435 155.135 192.875 153.695 192.875 151.55C192.875 149.585 191.495 148.04 189.365 148.04C188.12 148.04 187.115 148.625 186.605 149.495C186.665 146.66 187.805 145.205 189.425 145.205C190.625 145.205 191.165 145.745 191.405 146.735H192.65C192.365 145.01 191.18 144.14 189.515 144.14C187.055 144.14 185.315 146.15 185.315 150.005V150.26C185.315 152.945 186.245 155.135 189.17 155.135ZM189.17 154.115C187.73 154.115 186.695 153.185 186.695 151.43C186.695 150.035 187.715 149.06 189.155 149.06C190.61 149.06 191.54 150.065 191.54 151.61C191.54 153.125 190.58 154.115 189.17 154.115ZM199.511 155H200.786V152.75H202.271V151.685H200.786V144.275H199.046L194.141 152.33V152.75H199.511V155ZM195.791 151.685L199.511 145.265V151.685H195.791Z" fill="white"/>
<path d="M179.183 104.075C179.708 104.075 180.143 103.655 180.143 103.115C180.143 102.575 179.708 102.155 179.183 102.155C178.658 102.155 178.223 102.575 178.223 103.115C178.223 103.655 178.658 104.075 179.183 104.075ZM185.714 103.055C183.929 103.055 182.789 101.645 182.789 98.93V98.33C182.789 95.69 183.869 94.19 185.684 94.19C187.499 94.19 188.549 95.81 188.549 98.3V98.9C188.549 101.615 187.589 103.055 185.714 103.055ZM185.714 104.135C188.354 104.135 189.869 102.035 189.869 98.915V98.315C189.869 95.255 188.324 93.14 185.684 93.14C183.059 93.14 181.454 95.18 181.454 98.345V98.945C181.454 102.065 183.149 104.135 185.714 104.135ZM195.114 104.135C197.334 104.135 198.924 102.965 198.924 101.015C198.924 99.53 198.114 98.645 196.854 98.315C197.829 97.91 198.549 97.19 198.549 95.975C198.549 94.49 197.364 93.14 195.324 93.14C193.284 93.14 191.889 94.535 191.814 96.23H192.954C193.089 95.015 193.989 94.205 195.324 94.205C196.629 94.205 197.274 94.985 197.274 96.005C197.274 97.175 196.659 97.835 195.264 97.835H194.514V98.93H195.324C196.839 98.93 197.589 99.635 197.589 101.015C197.589 102.275 196.824 103.085 195.144 103.085C193.449 103.085 192.684 102.11 192.564 100.835H191.364C191.439 102.71 192.834 104.135 195.114 104.135ZM200.102 104H207.287V102.935H202.112L205.067 100.055C206.387 98.765 207.227 97.475 207.227 96.155C207.227 94.31 205.967 93.14 203.987 93.14C201.947 93.14 200.672 94.475 200.507 96.575H201.722C201.932 94.895 202.742 94.19 203.987 94.19C205.202 94.19 205.907 94.91 205.907 96.11C205.907 97.205 205.337 98.18 204.362 99.215L200.102 103.7V104Z" fill="white"/>
<path d="M170.091 82.075C170.616 82.075 171.051 81.655 171.051 81.115C171.051 80.575 170.616 80.155 170.091 80.155C169.566 80.155 169.131 80.575 169.131 81.115C169.131 81.655 169.566 82.075 170.091 82.075ZM176.622 81.055C174.837 81.055 173.697 79.645 173.697 76.93V76.33C173.697 73.69 174.777 72.19 176.592 72.19C178.407 72.19 179.457 73.81 179.457 76.3V76.9C179.457 79.615 178.497 81.055 176.622 81.055ZM176.622 82.135C179.262 82.135 180.777 80.035 180.777 76.915V76.315C180.777 73.255 179.232 71.14 176.592 71.14C173.967 71.14 172.362 73.18 172.362 76.345V76.945C172.362 80.065 174.057 82.135 176.622 82.135ZM184.567 82H185.872V71.275H184.657L182.167 73.075V74.29L184.567 72.565V82ZM192.418 82.135C194.683 82.135 196.123 80.695 196.123 78.55C196.123 76.585 194.743 75.04 192.613 75.04C191.368 75.04 190.363 75.625 189.853 76.495C189.913 73.66 191.053 72.205 192.673 72.205C193.873 72.205 194.413 72.745 194.653 73.735H195.898C195.613 72.01 194.428 71.14 192.763 71.14C190.303 71.14 188.563 73.15 188.563 77.005V77.26C188.563 79.945 189.493 82.135 192.418 82.135ZM192.418 81.115C190.978 81.115 189.943 80.185 189.943 78.43C189.943 77.035 190.963 76.06 192.403 76.06C193.858 76.06 194.788 77.065 194.788 78.61C194.788 80.125 193.828 81.115 192.418 81.115Z" fill="white"/>
<path d="M160.894 60.075C161.419 60.075 161.854 59.655 161.854 59.115C161.854 58.575 161.419 58.155 160.894 58.155C160.369 58.155 159.934 58.575 159.934 59.115C159.934 59.655 160.369 60.075 160.894 60.075ZM167.425 59.055C165.64 59.055 164.5 57.645 164.5 54.93V54.33C164.5 51.69 165.58 50.19 167.395 50.19C169.21 50.19 170.26 51.81 170.26 54.3V54.9C170.26 57.615 169.3 59.055 167.425 59.055ZM167.425 60.135C170.065 60.135 171.58 58.035 171.58 54.915V54.315C171.58 51.255 170.035 49.14 167.395 49.14C164.77 49.14 163.165 51.18 163.165 54.345V54.945C163.165 58.065 164.86 60.135 167.425 60.135ZM177.635 59.055C175.85 59.055 174.71 57.645 174.71 54.93V54.33C174.71 51.69 175.79 50.19 177.605 50.19C179.42 50.19 180.47 51.81 180.47 54.3V54.9C180.47 57.615 179.51 59.055 177.635 59.055ZM177.635 60.135C180.275 60.135 181.79 58.035 181.79 54.915V54.315C181.79 51.255 180.245 49.14 177.605 49.14C174.98 49.14 173.375 51.18 173.375 54.345V54.945C173.375 58.065 175.07 60.135 177.635 60.135ZM187.099 60.135C188.914 60.135 190.789 59.07 190.789 56.925C190.789 55.545 189.979 54.615 188.734 54.165C189.724 53.73 190.384 52.98 190.384 51.9C190.384 50.22 188.764 49.14 187.099 49.14C185.449 49.14 183.799 50.19 183.799 51.93C183.799 52.98 184.399 53.79 185.419 54.18C184.279 54.585 183.394 55.515 183.394 56.955C183.394 59.085 185.344 60.135 187.099 60.135ZM187.099 59.07C185.854 59.07 184.729 58.32 184.729 56.91C184.729 55.485 185.854 54.75 187.129 54.75C188.404 54.75 189.454 55.47 189.454 56.88C189.454 58.305 188.419 59.07 187.099 59.07ZM187.144 53.715C186.049 53.715 185.119 53.07 185.119 51.945C185.119 50.835 185.989 50.16 187.099 50.16C188.209 50.16 189.064 50.88 189.064 51.915C189.064 53.055 188.284 53.715 187.144 53.715Z" fill="white"/>
<path d="M163.791 115.366L166.706 103.522H171.615" stroke="#7A7E80"/>
<path d="M146.55 112.621L150.157 81H162.066" stroke="#7A7E80"/>
<path d="M137.354 111.621L140.96 59H152.869" stroke="#7A7E80"/>
<path d="M153.894 38.075C154.419 38.075 154.854 37.655 154.854 37.115C154.854 36.575 154.419 36.155 153.894 36.155C153.369 36.155 152.934 36.575 152.934 37.115C152.934 37.655 153.369 38.075 153.894 38.075ZM160.425 37.055C158.64 37.055 157.5 35.645 157.5 32.93V32.33C157.5 29.69 158.58 28.19 160.395 28.19C162.21 28.19 163.26 29.81 163.26 32.3V32.9C163.26 35.615 162.3 37.055 160.425 37.055ZM160.425 38.135C163.065 38.135 164.58 36.035 164.58 32.915V32.315C164.58 29.255 163.035 27.14 160.395 27.14C157.77 27.14 156.165 29.18 156.165 32.345V32.945C156.165 36.065 157.86 38.135 160.425 38.135ZM170.635 37.055C168.85 37.055 167.71 35.645 167.71 32.93V32.33C167.71 29.69 168.79 28.19 170.605 28.19C172.42 28.19 173.47 29.81 173.47 32.3V32.9C173.47 35.615 172.51 37.055 170.635 37.055ZM170.635 38.135C173.275 38.135 174.79 36.035 174.79 32.915V32.315C174.79 29.255 173.245 27.14 170.605 27.14C167.98 27.14 166.375 29.18 166.375 32.345V32.945C166.375 36.065 168.07 38.135 170.635 38.135ZM181.259 38H182.534V35.75H184.019V34.685H182.534V27.275H180.794L175.889 35.33V35.75H181.259V38ZM177.539 34.685L181.259 28.265V34.685H177.539Z" fill="white"/>
<path d="M148.21 16.075C148.735 16.075 149.17 15.655 149.17 15.115C149.17 14.575 148.735 14.155 148.21 14.155C147.685 14.155 147.25 14.575 147.25 15.115C147.25 15.655 147.685 16.075 148.21 16.075ZM154.741 15.055C152.956 15.055 151.816 13.645 151.816 10.93V10.33C151.816 7.69 152.896 6.19 154.711 6.19C156.526 6.19 157.576 7.81 157.576 10.3V10.9C157.576 13.615 156.616 15.055 154.741 15.055ZM154.741 16.135C157.381 16.135 158.896 14.035 158.896 10.915V10.315C158.896 7.255 157.351 5.14 154.711 5.14C152.086 5.14 150.481 7.18 150.481 10.345V10.945C150.481 14.065 152.176 16.135 154.741 16.135ZM164.951 15.055C163.166 15.055 162.026 13.645 162.026 10.93V10.33C162.026 7.69 163.106 6.19 164.921 6.19C166.736 6.19 167.786 7.81 167.786 10.3V10.9C167.786 13.615 166.826 15.055 164.951 15.055ZM164.951 16.135C167.591 16.135 169.106 14.035 169.106 10.915V10.315C169.106 7.255 167.561 5.14 164.921 5.14C162.296 5.14 160.691 7.18 160.691 10.345V10.945C160.691 14.065 162.386 16.135 164.951 16.135ZM170.286 16H177.471V14.935H172.296L175.251 12.055C176.571 10.765 177.411 9.475 177.411 8.155C177.411 6.31 176.151 5.14 174.171 5.14C172.131 5.14 170.856 6.475 170.691 8.575H171.906C172.116 6.895 172.926 6.19 174.171 6.19C175.386 6.19 176.091 6.91 176.091 8.11C176.091 9.205 175.521 10.18 174.546 11.215L170.286 15.7V16Z" fill="white"/>
<path d="M132.354 110.621L134.96 37H146.869" stroke="#7A7E80"/>
<path d="M129.879 111.02L129.879 15H140.789" stroke="#7A7E80"/>
</svg>
