<svg width="16" height="16" viewBox="0 0 16 16" fill="none" xmlns="http://www.w3.org/2000/svg">
	<path d="M0 8C0 3.58172 3.58172 0 8 0V0C12.4183 0 16 3.58172 16 8V8C16 12.4183 12.4183 16 8 16V16C3.58172 16 0 12.4183 0 8V8Z" fill="white"/>
	<path d="M5.64077 8.07568C5.64077 7.40912 5.91645 6.80704 6.35981 6.37696L4.61965 4.6368C4.61117 4.64528 4.60237 4.65344 4.59389 4.66192C4.15069 5.10512 3.80269 5.62128 3.55949 6.19632C3.30765 6.79184 3.17981 7.42432 3.17981 8.07568C3.17981 8.7272 3.30749 9.35952 3.55949 9.95504C3.79645 10.5154 4.13325 11.0197 4.56029 11.455L6.30061 9.71472C5.89213 9.28944 5.64077 8.712 5.64077 8.07568V8.07568ZM12.4558 9.95504C12.7076 9.35936 12.8355 8.72704 12.8355 8.07568C12.8355 7.42416 12.7078 6.79184 12.4558 6.19632C12.2126 5.62128 11.8646 5.10512 11.4214 4.66192C11.4129 4.65344 11.4043 4.64528 11.3956 4.6368L9.65565 6.3768C10.099 6.80704 10.3747 7.40912 10.3747 8.07552C10.3747 8.71184 10.1233 9.28928 9.71485 9.71472L11.4552 11.455C11.882 11.0197 12.2188 10.5154 12.4558 9.95504Z" fill="#18191A"/>
</svg>
