<?xml version="1.0" standalone="no"?>
<!DOCTYPE svg PUBLIC "-//W3C//DTD SVG 20010904//EN"
 "http://www.w3.org/TR/2001/REC-SVG-20010904/DTD/svg10.dtd">
<svg version="1.0" xmlns="http://www.w3.org/2000/svg"
 width="700.000000pt" height="700.000000pt" viewBox="0 0 700.000000 700.000000"
 preserveAspectRatio="xMidYMid meet">
<metadata>
Created by potrace 1.14, written by Peter Selinger 2001-2017
</metadata>
<g transform="translate(0.000000,700.000000) scale(0.100000,-0.100000)"
fill="#000000" stroke="none">
<path d="M1996 4948 c-11 -13 -42 -48 -70 -78 -241 -263 -424 -631 -495 -1000
-29 -152 -31 -168 -36 -355 -11 -449 103 -840 355 -1225 34 -51 67 -98 73
-105 7 -7 30 -34 52 -61 22 -27 58 -68 80 -92 l40 -43 375 375 c206 207 376
380 378 386 2 6 -3 17 -11 23 -30 23 -118 150 -153 218 -49 98 -75 172 -100
284 -3 17 -8 93 -10 170 -3 112 0 158 16 230 41 187 122 349 241 480 l52 56
-379 379 c-208 209 -381 380 -384 380 -3 0 -14 -10 -24 -22z"/>
<path d="M4606 4591 l-379 -379 58 -67 c175 -206 255 -432 250 -703 -3 -112
-8 -149 -40 -272 -28 -112 -125 -287 -208 -377 l-38 -42 382 -382 382 -382 26
29 c103 115 125 141 195 242 209 297 338 651 372 1017 13 133 7 384 -11 490
-58 339 -155 596 -323 855 -63 98 -181 246 -244 307 l-43 43 -379 -379z"/>
</g>
</svg>
