<svg xmlns="http://www.w3.org/2000/svg" width="79" height="74" fill="none"><path fill="#fff" fill-rule="evenodd" d="M9.8 0H37v26.8l-9.4 8.8H0V8.8L9.8 0zm-.5 2.4l-6.6 6h6.6v-6zm0 7.4H1.5v23.4l7.8-7V9.8zm1 17.4l-7.6 7h24v-7H10.3zm17.8 0v6l6.4-6h-6.4zm7.5-1.5h-7.5V9.4l7.5-7v23.3zM34.5 1.5H10.8v6.9h16.3l7.4-7zm-7.9 8.3H10.8v16h15.8v-16zM51.7 0H79v26.8l-9.4 8.8H41.9V8.8L51.7 0zm-.5 2.4l-6.6 6h6.6v-6zm0 7.4h-7.8v23.4l7.8-7V9.8zm1 17.4l-7.6 7h24v-7H52.1zm17.8 0v6l6.4-6H70zm7.5-1.5H70V9.4l7.5-7v23.3zM76.4 1.5H52.7v6.9H69l7.4-7zm-7.9 8.3H52.7v16h15.8v-16zM9.8 38.4H37v26.8L27.7 74H0V47.2l9.8-8.8zm-.5 2.4l-6.6 6h6.6v-6zm0 7.5H1.5v23.3l7.8-7V48.3zm1 17.3l-7.6 7h24v-7H10.3zm17.8 0v6l6.4-6h-6.4zm7.5-1.4h-7.5V47.8l7.5-7v23.4zm-1.1-24.3H10.8v6.9h16.3l7.4-7zm-7.9 8.4H10.8v15.9h15.8v-16zM51.7 38.4H79v26.8L69.6 74H41.9V47.2l9.8-8.8zm-.5 2.4l-6.6 6h6.6v-6zm0 7.5h-7.8v23.3l7.8-7V48.3zm1 17.3l-7.6 7h24v-7H52.1zm17.8 0v6l6.4-6H70zm7.5-1.4H70V47.8l7.5-7v23.4zm-1.1-24.3H52.7v6.9H69l7.4-7zm-7.9 8.4H52.7v15.9h15.8v-16z" clip-rule="evenodd"/></svg>